%FSLAX44Y44*%
%MOMM*%
G71*
G01*
G75*
%ADD10C,1.2700*%
%ADD11C,1.0160*%
%ADD12C,0.7620*%
%ADD13C,1.2540*%
%ADD14C,1.4000*%
%ADD15R,1.5000X1.5000*%
%ADD16C,1.5000*%
%ADD17C,1.2700*%
%ADD18C,4.6748*%
%ADD19C,2.0000*%
%ADD20C,1.8500*%
%ADD21R,1.8500X1.8500*%
%ADD22O,2.0000X1.0000*%
%ADD23O,2.0000X1.0000*%
%ADD24C,1.7000*%
%ADD25R,1.5748X1.5748*%
%ADD26C,1.5748*%
%ADD27O,1.0000X2.0000*%
%ADD28O,1.0000X2.0000*%
%ADD29C,0.2540*%
%ADD30C,0.5080*%
%ADD31C,0.1693*%
D29*
X1272540Y1860550D02*
Y1870710D01*
X1282700D01*
Y1860550D01*
X1272540D01*
X1399540D02*
Y1870710D01*
X1409700D01*
Y1860550D01*
X1399540D01*
X1182370Y2028190D02*
Y2038350D01*
X1192530D01*
Y2028190D01*
X1182370D01*
Y1901190D02*
Y1911350D01*
X1192530D01*
Y1901190D01*
X1182370D01*
D31*
X1239520Y1907540D02*
X1238938Y1909901D01*
X1237326Y1911721D01*
X1235052Y1912583D01*
X1232639Y1912290D01*
X1230638Y1910909D01*
X1229508Y1908756D01*
Y1906324D01*
X1230638Y1904171D01*
X1232639Y1902790D01*
X1235052Y1902497D01*
X1237326Y1903359D01*
X1238938Y1905179D01*
X1239520Y1907540D01*
Y1882140D02*
X1238938Y1884501D01*
X1237326Y1886321D01*
X1235052Y1887183D01*
X1232639Y1886890D01*
X1230638Y1885509D01*
X1229508Y1883356D01*
Y1880924D01*
X1230638Y1878771D01*
X1232639Y1877390D01*
X1235052Y1877097D01*
X1237326Y1877959D01*
X1238938Y1879779D01*
X1239520Y1882140D01*
Y1856740D02*
X1238938Y1859101D01*
X1237326Y1860921D01*
X1235052Y1861783D01*
X1232639Y1861490D01*
X1230638Y1860109D01*
X1229508Y1857956D01*
Y1855524D01*
X1230638Y1853371D01*
X1232639Y1851990D01*
X1235052Y1851697D01*
X1237326Y1852559D01*
X1238938Y1854379D01*
X1239520Y1856740D01*
Y1831340D02*
X1238938Y1833701D01*
X1237326Y1835521D01*
X1235052Y1836383D01*
X1232639Y1836090D01*
X1230638Y1834709D01*
X1229508Y1832556D01*
Y1830124D01*
X1230638Y1827971D01*
X1232639Y1826590D01*
X1235052Y1826297D01*
X1237326Y1827159D01*
X1238938Y1828979D01*
X1239520Y1831340D01*
Y1805940D02*
X1238938Y1808301D01*
X1237326Y1810121D01*
X1235052Y1810983D01*
X1232639Y1810690D01*
X1230638Y1809309D01*
X1229508Y1807156D01*
Y1804724D01*
X1230638Y1802571D01*
X1232639Y1801190D01*
X1235052Y1800897D01*
X1237326Y1801759D01*
X1238938Y1803579D01*
X1239520Y1805940D01*
Y1780540D02*
X1238938Y1782901D01*
X1237326Y1784721D01*
X1235052Y1785583D01*
X1232639Y1785290D01*
X1230638Y1783909D01*
X1229508Y1781756D01*
Y1779324D01*
X1230638Y1777171D01*
X1232639Y1775790D01*
X1235052Y1775497D01*
X1237326Y1776359D01*
X1238938Y1778179D01*
X1239520Y1780540D01*
Y1755140D02*
X1238938Y1757501D01*
X1237326Y1759321D01*
X1235052Y1760183D01*
X1232639Y1759890D01*
X1230638Y1758509D01*
X1229508Y1756356D01*
Y1753924D01*
X1230638Y1751771D01*
X1232639Y1750390D01*
X1235052Y1750097D01*
X1237326Y1750959D01*
X1238938Y1752779D01*
X1239520Y1755140D01*
Y1729740D02*
X1238938Y1732101D01*
X1237326Y1733921D01*
X1235052Y1734783D01*
X1232639Y1734490D01*
X1230638Y1733109D01*
X1229508Y1730956D01*
Y1728524D01*
X1230638Y1726371D01*
X1232639Y1724990D01*
X1235052Y1724697D01*
X1237326Y1725559D01*
X1238938Y1727379D01*
X1239520Y1729740D01*
Y1704340D02*
X1238938Y1706701D01*
X1237326Y1708521D01*
X1235052Y1709383D01*
X1232639Y1709090D01*
X1230638Y1707709D01*
X1229508Y1705556D01*
Y1703124D01*
X1230638Y1700971D01*
X1232639Y1699590D01*
X1235052Y1699297D01*
X1237326Y1700159D01*
X1238938Y1701979D01*
X1239520Y1704340D01*
Y1678940D02*
X1238938Y1681301D01*
X1237326Y1683121D01*
X1235052Y1683983D01*
X1232639Y1683690D01*
X1230638Y1682309D01*
X1229508Y1680156D01*
Y1677724D01*
X1230638Y1675571D01*
X1232639Y1674190D01*
X1235052Y1673897D01*
X1237326Y1674759D01*
X1238938Y1676579D01*
X1239520Y1678940D01*
Y1653540D02*
X1238938Y1655901D01*
X1237326Y1657721D01*
X1235052Y1658583D01*
X1232639Y1658290D01*
X1230638Y1656909D01*
X1229508Y1654756D01*
Y1652324D01*
X1230638Y1650171D01*
X1232639Y1648790D01*
X1235052Y1648497D01*
X1237326Y1649359D01*
X1238938Y1651179D01*
X1239520Y1653540D01*
Y1628140D02*
X1238938Y1630501D01*
X1237326Y1632321D01*
X1235052Y1633183D01*
X1232639Y1632890D01*
X1230638Y1631509D01*
X1229508Y1629356D01*
Y1626924D01*
X1230638Y1624771D01*
X1232639Y1623390D01*
X1235052Y1623097D01*
X1237326Y1623959D01*
X1238938Y1625779D01*
X1239520Y1628140D01*
Y1602740D02*
X1238938Y1605101D01*
X1237326Y1606921D01*
X1235052Y1607783D01*
X1232639Y1607490D01*
X1230638Y1606109D01*
X1229508Y1603956D01*
Y1601524D01*
X1230638Y1599371D01*
X1232639Y1597990D01*
X1235052Y1597697D01*
X1237326Y1598559D01*
X1238938Y1600379D01*
X1239520Y1602740D01*
Y1577340D02*
X1238938Y1579701D01*
X1237326Y1581521D01*
X1235052Y1582383D01*
X1232639Y1582090D01*
X1230638Y1580709D01*
X1229508Y1578556D01*
Y1576124D01*
X1230638Y1573971D01*
X1232639Y1572590D01*
X1235052Y1572297D01*
X1237326Y1573159D01*
X1238938Y1574979D01*
X1239520Y1577340D01*
Y1551940D02*
X1238938Y1554301D01*
X1237326Y1556121D01*
X1235052Y1556983D01*
X1232639Y1556690D01*
X1230638Y1555309D01*
X1229508Y1553156D01*
Y1550724D01*
X1230638Y1548571D01*
X1232639Y1547190D01*
X1235052Y1546897D01*
X1237326Y1547759D01*
X1238938Y1549579D01*
X1239520Y1551940D01*
Y1526540D02*
X1238938Y1528901D01*
X1237326Y1530721D01*
X1235052Y1531583D01*
X1232639Y1531290D01*
X1230638Y1529909D01*
X1229508Y1527756D01*
Y1525324D01*
X1230638Y1523171D01*
X1232639Y1521790D01*
X1235052Y1521497D01*
X1237326Y1522359D01*
X1238938Y1524179D01*
X1239520Y1526540D01*
Y1501140D02*
X1238938Y1503501D01*
X1237326Y1505321D01*
X1235052Y1506183D01*
X1232639Y1505890D01*
X1230638Y1504509D01*
X1229508Y1502356D01*
Y1499924D01*
X1230638Y1497771D01*
X1232639Y1496390D01*
X1235052Y1496097D01*
X1237326Y1496959D01*
X1238938Y1498779D01*
X1239520Y1501140D01*
Y1475740D02*
X1238938Y1478101D01*
X1237326Y1479921D01*
X1235052Y1480783D01*
X1232639Y1480490D01*
X1230638Y1479109D01*
X1229508Y1476956D01*
Y1474524D01*
X1230638Y1472371D01*
X1232639Y1470990D01*
X1235052Y1470697D01*
X1237326Y1471559D01*
X1238938Y1473379D01*
X1239520Y1475740D01*
Y1450340D02*
X1238938Y1452701D01*
X1237326Y1454521D01*
X1235052Y1455383D01*
X1232639Y1455090D01*
X1230638Y1453709D01*
X1229508Y1451556D01*
Y1449124D01*
X1230638Y1446971D01*
X1232639Y1445590D01*
X1235052Y1445297D01*
X1237326Y1446159D01*
X1238938Y1447979D01*
X1239520Y1450340D01*
Y1424940D02*
X1238938Y1427301D01*
X1237326Y1429121D01*
X1235052Y1429983D01*
X1232639Y1429690D01*
X1230638Y1428309D01*
X1229508Y1426156D01*
Y1423724D01*
X1230638Y1421571D01*
X1232639Y1420190D01*
X1235052Y1419897D01*
X1237326Y1420759D01*
X1238938Y1422579D01*
X1239520Y1424940D01*
X758190Y1426210D02*
X753110Y1436370D01*
X763270D01*
X758190Y1426210D01*
Y1475010D02*
X753110Y1485170D01*
X763270D01*
X758190Y1475010D01*
X631190Y2037080D02*
X633730Y2039620D01*
X636270D01*
X633730Y2042160D01*
X636270Y2044700D01*
X633730D01*
X631190Y2047240D01*
X628650Y2044700D01*
X626110D01*
X628650Y2042160D01*
X626110Y2039620D01*
X628650D01*
X631190Y2037080D01*
Y1902460D02*
X633730Y1905000D01*
X636270D01*
X633730Y1907540D01*
X636270Y1910080D01*
X633730D01*
X631190Y1912620D01*
X628650Y1910080D01*
X626110D01*
X628650Y1907540D01*
X626110Y1905000D01*
X628650D01*
X631190Y1902460D01*
X599440Y2007870D02*
X601980Y2012950D01*
X599440Y2018030D01*
X604520Y2015490D01*
X609600Y2018030D01*
X607060Y2012950D01*
X609600Y2007870D01*
X604520Y2010410D01*
X599440Y2007870D01*
Y1982470D02*
X601980Y1987550D01*
X599440Y1992630D01*
X604520Y1990090D01*
X609600Y1992630D01*
X607060Y1987550D01*
X609600Y1982470D01*
X604520Y1985010D01*
X599440Y1982470D01*
Y1957070D02*
X601980Y1962150D01*
X599440Y1967230D01*
X604520Y1964690D01*
X609600Y1967230D01*
X607060Y1962150D01*
X609600Y1957070D01*
X604520Y1959610D01*
X599440Y1957070D01*
Y1931670D02*
X601980Y1936750D01*
X599440Y1941830D01*
X604520Y1939290D01*
X609600Y1941830D01*
X607060Y1936750D01*
X609600Y1931670D01*
X604520Y1934210D01*
X599440Y1931670D01*
X647700Y1791970D02*
Y1789430D01*
X652780D01*
Y1791970D01*
X655320D01*
Y1797050D01*
X652780D01*
Y1799590D01*
X647700D01*
Y1797050D01*
X645160D01*
Y1791970D01*
X647700D01*
Y1817370D02*
Y1814830D01*
X652780D01*
Y1817370D01*
X655320D01*
Y1822450D01*
X652780D01*
Y1824990D01*
X647700D01*
Y1822450D01*
X645160D01*
Y1817370D01*
X647700D01*
Y1842770D02*
Y1840230D01*
X652780D01*
Y1842770D01*
X655320D01*
Y1847850D01*
X652780D01*
Y1850390D01*
X647700D01*
Y1847850D01*
X645160D01*
Y1842770D01*
X647700D01*
X596900Y1791970D02*
Y1789430D01*
X601980D01*
Y1791970D01*
X604520D01*
Y1797050D01*
X601980D01*
Y1799590D01*
X596900D01*
Y1797050D01*
X594360D01*
Y1791970D01*
X596900D01*
Y1817370D02*
Y1814830D01*
X601980D01*
Y1817370D01*
X604520D01*
Y1822450D01*
X601980D01*
Y1824990D01*
X596900D01*
Y1822450D01*
X594360D01*
Y1817370D01*
X596900D01*
Y1842770D02*
Y1840230D01*
X601980D01*
Y1842770D01*
X604520D01*
Y1847850D01*
X601980D01*
Y1850390D01*
X596900D01*
Y1847850D01*
X594360D01*
Y1842770D01*
X596900D01*
X695960Y1939290D02*
Y1949450D01*
X706120D01*
Y1939290D01*
X695960D01*
Y2066290D02*
Y2076450D01*
X706120D01*
Y2066290D01*
X695960D01*
X801370Y1690370D02*
Y1700530D01*
X811530D01*
Y1690370D01*
X801370D01*
X674370D02*
Y1700530D01*
X684530D01*
Y1690370D01*
X674370D01*
X1073150Y1560830D02*
X1072568Y1563191D01*
X1070956Y1565011D01*
X1068682Y1565873D01*
X1066269Y1565580D01*
X1064268Y1564199D01*
X1063138Y1562046D01*
Y1559614D01*
X1064268Y1557461D01*
X1066269Y1556080D01*
X1068682Y1555787D01*
X1070956Y1556649D01*
X1072568Y1558469D01*
X1073150Y1560830D01*
Y1548130D02*
X1072568Y1550491D01*
X1070956Y1552311D01*
X1068682Y1553173D01*
X1066269Y1552880D01*
X1064268Y1551499D01*
X1063138Y1549346D01*
Y1546914D01*
X1064268Y1544761D01*
X1066269Y1543380D01*
X1068682Y1543087D01*
X1070956Y1543949D01*
X1072568Y1545769D01*
X1073150Y1548130D01*
Y1535430D02*
X1072568Y1537791D01*
X1070956Y1539611D01*
X1068682Y1540473D01*
X1066269Y1540180D01*
X1064268Y1538799D01*
X1063138Y1536646D01*
Y1534214D01*
X1064268Y1532061D01*
X1066269Y1530680D01*
X1068682Y1530387D01*
X1070956Y1531249D01*
X1072568Y1533069D01*
X1073150Y1535430D01*
X600710Y1568450D02*
X600128Y1570811D01*
X598516Y1572631D01*
X596242Y1573493D01*
X593829Y1573200D01*
X591828Y1571819D01*
X590698Y1569666D01*
Y1567234D01*
X591828Y1565081D01*
X593829Y1563700D01*
X596242Y1563407D01*
X598516Y1564269D01*
X600128Y1566089D01*
X600710Y1568450D01*
Y1593850D02*
X600128Y1596211D01*
X598516Y1598031D01*
X596242Y1598893D01*
X593829Y1598600D01*
X591828Y1597219D01*
X590698Y1595066D01*
Y1592634D01*
X591828Y1590481D01*
X593829Y1589100D01*
X596242Y1588807D01*
X598516Y1589669D01*
X600128Y1591489D01*
X600710Y1593850D01*
Y1619250D02*
X600128Y1621611D01*
X598516Y1623431D01*
X596242Y1624293D01*
X593829Y1624000D01*
X591828Y1622619D01*
X590698Y1620466D01*
Y1618034D01*
X591828Y1615881D01*
X593829Y1614500D01*
X596242Y1614207D01*
X598516Y1615069D01*
X600128Y1616889D01*
X600710Y1619250D01*
Y1644650D02*
X600128Y1647011D01*
X598516Y1648831D01*
X596242Y1649693D01*
X593829Y1649400D01*
X591828Y1648019D01*
X590698Y1645866D01*
Y1643434D01*
X591828Y1641281D01*
X593829Y1639900D01*
X596242Y1639607D01*
X598516Y1640469D01*
X600128Y1642289D01*
X600710Y1644650D01*
Y1670050D02*
X600128Y1672411D01*
X598516Y1674231D01*
X596242Y1675093D01*
X593829Y1674800D01*
X591828Y1673419D01*
X590698Y1671266D01*
Y1668834D01*
X591828Y1666681D01*
X593829Y1665300D01*
X596242Y1665007D01*
X598516Y1665869D01*
X600128Y1667689D01*
X600710Y1670050D01*
Y1695450D02*
X600128Y1697811D01*
X598516Y1699631D01*
X596242Y1700493D01*
X593829Y1700200D01*
X591828Y1698819D01*
X590698Y1696666D01*
Y1694234D01*
X591828Y1692081D01*
X593829Y1690700D01*
X596242Y1690407D01*
X598516Y1691269D01*
X600128Y1693089D01*
X600710Y1695450D01*
Y1720850D02*
X600128Y1723211D01*
X598516Y1725031D01*
X596242Y1725893D01*
X593829Y1725600D01*
X591828Y1724219D01*
X590698Y1722066D01*
Y1719634D01*
X591828Y1717481D01*
X593829Y1716100D01*
X596242Y1715807D01*
X598516Y1716669D01*
X600128Y1718489D01*
X600710Y1720850D01*
X1118870Y1441450D02*
X1121410Y1446530D01*
X1118870Y1451610D01*
X1123950Y1449070D01*
X1129030Y1451610D01*
X1126490Y1446530D01*
X1129030Y1441450D01*
X1123950Y1443990D01*
X1118870Y1441450D01*
X1049020D02*
X1051560Y1446530D01*
X1049020Y1451610D01*
X1054100Y1449070D01*
X1059180Y1451610D01*
X1056640Y1446530D01*
X1059180Y1441450D01*
X1054100Y1443990D01*
X1049020Y1441450D01*
X772160Y1997710D02*
X774700D01*
X777240Y2000250D01*
X779780Y1997710D01*
X782320D01*
Y2000250D01*
X779780Y2002790D01*
X782320Y2005330D01*
Y2007870D01*
X779780D01*
X777240Y2005330D01*
X774700Y2007870D01*
X772160D01*
Y2005330D01*
X774700Y2002790D01*
X772160Y2000250D01*
Y1997710D01*
X746760D02*
X749300D01*
X751840Y2000250D01*
X754380Y1997710D01*
X756920D01*
Y2000250D01*
X754380Y2002790D01*
X756920Y2005330D01*
Y2007870D01*
X754380D01*
X751840Y2005330D01*
X749300Y2007870D01*
X746760D01*
Y2005330D01*
X749300Y2002790D01*
X746760Y2000250D01*
Y1997710D01*
X1301750Y1546860D02*
X1304290Y1551940D01*
X1301750Y1557020D01*
X1306830Y1554480D01*
X1311910Y1557020D01*
X1309370Y1551940D01*
X1311910Y1546860D01*
X1306830Y1549400D01*
X1301750Y1546860D01*
Y1517650D02*
X1304290Y1522730D01*
X1301750Y1527810D01*
X1306830Y1525270D01*
X1311910Y1527810D01*
X1309370Y1522730D01*
X1311910Y1517650D01*
X1306830Y1520190D01*
X1301750Y1517650D01*
Y1577340D02*
X1304290Y1582420D01*
X1301750Y1587500D01*
X1306830Y1584960D01*
X1311910Y1587500D01*
X1309370Y1582420D01*
X1311910Y1577340D01*
X1306830Y1579880D01*
X1301750Y1577340D01*
X1056640Y1699260D02*
X1061720Y1704340D01*
X1066800Y1699260D01*
X1061720Y1694180D01*
X1056640Y1699260D01*
X1066800Y1902460D02*
X1066218Y1904821D01*
X1064606Y1906641D01*
X1062332Y1907503D01*
X1059919Y1907210D01*
X1057918Y1905829D01*
X1056788Y1903676D01*
Y1901244D01*
X1057918Y1899091D01*
X1059919Y1897710D01*
X1062332Y1897417D01*
X1064606Y1898279D01*
X1066218Y1900099D01*
X1066800Y1902460D01*
Y1877060D02*
X1066218Y1879421D01*
X1064606Y1881241D01*
X1062332Y1882103D01*
X1059919Y1881810D01*
X1057918Y1880429D01*
X1056788Y1878276D01*
Y1875844D01*
X1057918Y1873691D01*
X1059919Y1872310D01*
X1062332Y1872017D01*
X1064606Y1872879D01*
X1066218Y1874699D01*
X1066800Y1877060D01*
Y1851660D02*
X1066218Y1854021D01*
X1064606Y1855841D01*
X1062332Y1856703D01*
X1059919Y1856410D01*
X1057918Y1855029D01*
X1056788Y1852876D01*
Y1850444D01*
X1057918Y1848291D01*
X1059919Y1846910D01*
X1062332Y1846617D01*
X1064606Y1847479D01*
X1066218Y1849299D01*
X1066800Y1851660D01*
Y1826260D02*
X1066218Y1828621D01*
X1064606Y1830441D01*
X1062332Y1831303D01*
X1059919Y1831010D01*
X1057918Y1829629D01*
X1056788Y1827476D01*
Y1825044D01*
X1057918Y1822891D01*
X1059919Y1821510D01*
X1062332Y1821217D01*
X1064606Y1822079D01*
X1066218Y1823899D01*
X1066800Y1826260D01*
Y1800860D02*
X1066218Y1803221D01*
X1064606Y1805041D01*
X1062332Y1805903D01*
X1059919Y1805610D01*
X1057918Y1804229D01*
X1056788Y1802076D01*
Y1799644D01*
X1057918Y1797491D01*
X1059919Y1796110D01*
X1062332Y1795817D01*
X1064606Y1796679D01*
X1066218Y1798499D01*
X1066800Y1800860D01*
Y1775460D02*
X1066218Y1777821D01*
X1064606Y1779641D01*
X1062332Y1780503D01*
X1059919Y1780210D01*
X1057918Y1778829D01*
X1056788Y1776676D01*
Y1774244D01*
X1057918Y1772091D01*
X1059919Y1770710D01*
X1062332Y1770417D01*
X1064606Y1771279D01*
X1066218Y1773099D01*
X1066800Y1775460D01*
Y1750060D02*
X1066218Y1752421D01*
X1064606Y1754241D01*
X1062332Y1755103D01*
X1059919Y1754810D01*
X1057918Y1753429D01*
X1056788Y1751276D01*
Y1748844D01*
X1057918Y1746691D01*
X1059919Y1745310D01*
X1062332Y1745017D01*
X1064606Y1745879D01*
X1066218Y1747699D01*
X1066800Y1750060D01*
Y1724660D02*
X1066218Y1727021D01*
X1064606Y1728841D01*
X1062332Y1729703D01*
X1059919Y1729410D01*
X1057918Y1728029D01*
X1056788Y1725876D01*
Y1723444D01*
X1057918Y1721291D01*
X1059919Y1719910D01*
X1062332Y1719617D01*
X1064606Y1720479D01*
X1066218Y1722299D01*
X1066800Y1724660D01*
X676910Y1410970D02*
X679450D01*
X681990Y1413510D01*
X684530Y1410970D01*
X687070D01*
Y1413510D01*
X684530Y1416050D01*
X687070Y1418590D01*
Y1421130D01*
X684530D01*
X681990Y1418590D01*
X679450Y1421130D01*
X676910D01*
Y1418590D01*
X679450Y1416050D01*
X676910Y1413510D01*
Y1410970D01*
X702310D02*
X704850D01*
X707390Y1413510D01*
X709930Y1410970D01*
X712470D01*
Y1413510D01*
X709930Y1416050D01*
X712470Y1418590D01*
Y1421130D01*
X709930D01*
X707390Y1418590D01*
X704850Y1421130D01*
X702310D01*
Y1418590D01*
X704850Y1416050D01*
X702310Y1413510D01*
Y1410970D01*
Y1482090D02*
X704850D01*
X707390Y1484630D01*
X709930Y1482090D01*
X712470D01*
Y1484630D01*
X709930Y1487170D01*
X712470Y1489710D01*
Y1492250D01*
X709930D01*
X707390Y1489710D01*
X704850Y1492250D01*
X702310D01*
Y1489710D01*
X704850Y1487170D01*
X702310Y1484630D01*
Y1482090D01*
X676910D02*
X679450D01*
X681990Y1484630D01*
X684530Y1482090D01*
X687070D01*
Y1484630D01*
X684530Y1487170D01*
X687070Y1489710D01*
Y1492250D01*
X684530D01*
X681990Y1489710D01*
X679450Y1492250D01*
X676910D01*
Y1489710D01*
X679450Y1487170D01*
X676910Y1484630D01*
Y1482090D01*
X753110Y1746250D02*
X755650D01*
X758190Y1748790D01*
X760730Y1746250D01*
X763270D01*
Y1748790D01*
X760730Y1751330D01*
X763270Y1753870D01*
Y1756410D01*
X760730D01*
X758190Y1753870D01*
X755650Y1756410D01*
X753110D01*
Y1753870D01*
X755650Y1751330D01*
X753110Y1748790D01*
Y1746250D01*
X727710D02*
X730250D01*
X732790Y1748790D01*
X735330Y1746250D01*
X737870D01*
Y1748790D01*
X735330Y1751330D01*
X737870Y1753870D01*
Y1756410D01*
X735330D01*
X732790Y1753870D01*
X730250Y1756410D01*
X727710D01*
Y1753870D01*
X730250Y1751330D01*
X727710Y1748790D01*
Y1746250D01*
X773430Y1897380D02*
X775970Y1902460D01*
X773430Y1907540D01*
X778510Y1905000D01*
X783590Y1907540D01*
X781050Y1902460D01*
X783590Y1897380D01*
X778510Y1899920D01*
X773430Y1897380D01*
Y1827530D02*
X775970Y1832610D01*
X773430Y1837690D01*
X778510Y1835150D01*
X783590Y1837690D01*
X781050Y1832610D01*
X783590Y1827530D01*
X778510Y1830070D01*
X773430Y1827530D01*
X722630Y1897380D02*
X725170Y1902460D01*
X722630Y1907540D01*
X727710Y1905000D01*
X732790Y1907540D01*
X730250Y1902460D01*
X732790Y1897380D01*
X727710Y1899920D01*
X722630Y1897380D01*
Y1827530D02*
X725170Y1832610D01*
X722630Y1837690D01*
X727710Y1835150D01*
X732790Y1837690D01*
X730250Y1832610D01*
X732790Y1827530D01*
X727710Y1830070D01*
X722630Y1827530D01*
X995680Y1419860D02*
X995098Y1422221D01*
X993486Y1424041D01*
X991212Y1424903D01*
X988799Y1424610D01*
X986798Y1423229D01*
X985668Y1421076D01*
Y1418644D01*
X986798Y1416491D01*
X988799Y1415110D01*
X991212Y1414817D01*
X993486Y1415679D01*
X995098Y1417499D01*
X995680Y1419860D01*
Y1445260D02*
X995098Y1447621D01*
X993486Y1449441D01*
X991212Y1450303D01*
X988799Y1450010D01*
X986798Y1448629D01*
X985668Y1446476D01*
Y1444044D01*
X986798Y1441891D01*
X988799Y1440510D01*
X991212Y1440217D01*
X993486Y1441079D01*
X995098Y1442899D01*
X995680Y1445260D01*
Y1470660D02*
X995098Y1473021D01*
X993486Y1474841D01*
X991212Y1475703D01*
X988799Y1475410D01*
X986798Y1474029D01*
X985668Y1471876D01*
Y1469444D01*
X986798Y1467291D01*
X988799Y1465910D01*
X991212Y1465617D01*
X993486Y1466479D01*
X995098Y1468299D01*
X995680Y1470660D01*
Y1496060D02*
X995098Y1498421D01*
X993486Y1500241D01*
X991212Y1501103D01*
X988799Y1500810D01*
X986798Y1499429D01*
X985668Y1497276D01*
Y1494844D01*
X986798Y1492691D01*
X988799Y1491310D01*
X991212Y1491017D01*
X993486Y1491879D01*
X995098Y1493699D01*
X995680Y1496060D01*
Y1521460D02*
X995098Y1523821D01*
X993486Y1525641D01*
X991212Y1526503D01*
X988799Y1526210D01*
X986798Y1524829D01*
X985668Y1522676D01*
Y1520244D01*
X986798Y1518091D01*
X988799Y1516710D01*
X991212Y1516417D01*
X993486Y1517279D01*
X995098Y1519099D01*
X995680Y1521460D01*
Y1546860D02*
X995098Y1549221D01*
X993486Y1551041D01*
X991212Y1551903D01*
X988799Y1551610D01*
X986798Y1550229D01*
X985668Y1548076D01*
Y1545644D01*
X986798Y1543491D01*
X988799Y1542110D01*
X991212Y1541817D01*
X993486Y1542679D01*
X995098Y1544499D01*
X995680Y1546860D01*
Y1572260D02*
X995098Y1574621D01*
X993486Y1576441D01*
X991212Y1577303D01*
X988799Y1577010D01*
X986798Y1575629D01*
X985668Y1573476D01*
Y1571044D01*
X986798Y1568891D01*
X988799Y1567510D01*
X991212Y1567217D01*
X993486Y1568079D01*
X995098Y1569899D01*
X995680Y1572260D01*
Y1597660D02*
X995098Y1600021D01*
X993486Y1601841D01*
X991212Y1602703D01*
X988799Y1602410D01*
X986798Y1601029D01*
X985668Y1598876D01*
Y1596444D01*
X986798Y1594291D01*
X988799Y1592910D01*
X991212Y1592617D01*
X993486Y1593479D01*
X995098Y1595299D01*
X995680Y1597660D01*
Y1623060D02*
X995098Y1625421D01*
X993486Y1627241D01*
X991212Y1628103D01*
X988799Y1627810D01*
X986798Y1626429D01*
X985668Y1624276D01*
Y1621844D01*
X986798Y1619691D01*
X988799Y1618310D01*
X991212Y1618017D01*
X993486Y1618879D01*
X995098Y1620699D01*
X995680Y1623060D01*
Y1648460D02*
X995098Y1650821D01*
X993486Y1652641D01*
X991212Y1653503D01*
X988799Y1653210D01*
X986798Y1651829D01*
X985668Y1649676D01*
Y1647244D01*
X986798Y1645091D01*
X988799Y1643710D01*
X991212Y1643417D01*
X993486Y1644279D01*
X995098Y1646099D01*
X995680Y1648460D01*
Y1673860D02*
X995098Y1676221D01*
X993486Y1678041D01*
X991212Y1678903D01*
X988799Y1678610D01*
X986798Y1677229D01*
X985668Y1675076D01*
Y1672644D01*
X986798Y1670491D01*
X988799Y1669110D01*
X991212Y1668817D01*
X993486Y1669679D01*
X995098Y1671499D01*
X995680Y1673860D01*
Y1699260D02*
X995098Y1701621D01*
X993486Y1703441D01*
X991212Y1704303D01*
X988799Y1704010D01*
X986798Y1702629D01*
X985668Y1700476D01*
Y1698044D01*
X986798Y1695891D01*
X988799Y1694510D01*
X991212Y1694217D01*
X993486Y1695079D01*
X995098Y1696899D01*
X995680Y1699260D01*
Y1724660D02*
X995098Y1727021D01*
X993486Y1728841D01*
X991212Y1729703D01*
X988799Y1729410D01*
X986798Y1728029D01*
X985668Y1725876D01*
Y1723444D01*
X986798Y1721291D01*
X988799Y1719910D01*
X991212Y1719617D01*
X993486Y1720479D01*
X995098Y1722299D01*
X995680Y1724660D01*
Y1750060D02*
X995098Y1752421D01*
X993486Y1754241D01*
X991212Y1755103D01*
X988799Y1754810D01*
X986798Y1753429D01*
X985668Y1751276D01*
Y1748844D01*
X986798Y1746691D01*
X988799Y1745310D01*
X991212Y1745017D01*
X993486Y1745879D01*
X995098Y1747699D01*
X995680Y1750060D01*
Y1775460D02*
X995098Y1777821D01*
X993486Y1779641D01*
X991212Y1780503D01*
X988799Y1780210D01*
X986798Y1778829D01*
X985668Y1776676D01*
Y1774244D01*
X986798Y1772091D01*
X988799Y1770710D01*
X991212Y1770417D01*
X993486Y1771279D01*
X995098Y1773099D01*
X995680Y1775460D01*
Y1800860D02*
X995098Y1803221D01*
X993486Y1805041D01*
X991212Y1805903D01*
X988799Y1805610D01*
X986798Y1804229D01*
X985668Y1802076D01*
Y1799644D01*
X986798Y1797491D01*
X988799Y1796110D01*
X991212Y1795817D01*
X993486Y1796679D01*
X995098Y1798499D01*
X995680Y1800860D01*
Y1826260D02*
X995098Y1828621D01*
X993486Y1830441D01*
X991212Y1831303D01*
X988799Y1831010D01*
X986798Y1829629D01*
X985668Y1827476D01*
Y1825044D01*
X986798Y1822891D01*
X988799Y1821510D01*
X991212Y1821217D01*
X993486Y1822079D01*
X995098Y1823899D01*
X995680Y1826260D01*
Y1851660D02*
X995098Y1854021D01*
X993486Y1855841D01*
X991212Y1856703D01*
X988799Y1856410D01*
X986798Y1855029D01*
X985668Y1852876D01*
Y1850444D01*
X986798Y1848291D01*
X988799Y1846910D01*
X991212Y1846617D01*
X993486Y1847479D01*
X995098Y1849299D01*
X995680Y1851660D01*
Y1877060D02*
X995098Y1879421D01*
X993486Y1881241D01*
X991212Y1882103D01*
X988799Y1881810D01*
X986798Y1880429D01*
X985668Y1878276D01*
Y1875844D01*
X986798Y1873691D01*
X988799Y1872310D01*
X991212Y1872017D01*
X993486Y1872879D01*
X995098Y1874699D01*
X995680Y1877060D01*
Y1902460D02*
X995098Y1904821D01*
X993486Y1906641D01*
X991212Y1907503D01*
X988799Y1907210D01*
X986798Y1905829D01*
X985668Y1903676D01*
Y1901244D01*
X986798Y1899091D01*
X988799Y1897710D01*
X991212Y1897417D01*
X993486Y1898279D01*
X995098Y1900099D01*
X995680Y1902460D01*
X843280Y1419860D02*
X842698Y1422221D01*
X841086Y1424041D01*
X838812Y1424903D01*
X836399Y1424610D01*
X834398Y1423229D01*
X833268Y1421076D01*
Y1418644D01*
X834398Y1416491D01*
X836399Y1415110D01*
X838812Y1414817D01*
X841086Y1415679D01*
X842698Y1417499D01*
X843280Y1419860D01*
Y1445260D02*
X842698Y1447621D01*
X841086Y1449441D01*
X838812Y1450303D01*
X836399Y1450010D01*
X834398Y1448629D01*
X833268Y1446476D01*
Y1444044D01*
X834398Y1441891D01*
X836399Y1440510D01*
X838812Y1440217D01*
X841086Y1441079D01*
X842698Y1442899D01*
X843280Y1445260D01*
Y1470660D02*
X842698Y1473021D01*
X841086Y1474841D01*
X838812Y1475703D01*
X836399Y1475410D01*
X834398Y1474029D01*
X833268Y1471876D01*
Y1469444D01*
X834398Y1467291D01*
X836399Y1465910D01*
X838812Y1465617D01*
X841086Y1466479D01*
X842698Y1468299D01*
X843280Y1470660D01*
Y1496060D02*
X842698Y1498421D01*
X841086Y1500241D01*
X838812Y1501103D01*
X836399Y1500810D01*
X834398Y1499429D01*
X833268Y1497276D01*
Y1494844D01*
X834398Y1492691D01*
X836399Y1491310D01*
X838812Y1491017D01*
X841086Y1491879D01*
X842698Y1493699D01*
X843280Y1496060D01*
Y1521460D02*
X842698Y1523821D01*
X841086Y1525641D01*
X838812Y1526503D01*
X836399Y1526210D01*
X834398Y1524829D01*
X833268Y1522676D01*
Y1520244D01*
X834398Y1518091D01*
X836399Y1516710D01*
X838812Y1516417D01*
X841086Y1517279D01*
X842698Y1519099D01*
X843280Y1521460D01*
Y1546860D02*
X842698Y1549221D01*
X841086Y1551041D01*
X838812Y1551903D01*
X836399Y1551610D01*
X834398Y1550229D01*
X833268Y1548076D01*
Y1545644D01*
X834398Y1543491D01*
X836399Y1542110D01*
X838812Y1541817D01*
X841086Y1542679D01*
X842698Y1544499D01*
X843280Y1546860D01*
Y1572260D02*
X842698Y1574621D01*
X841086Y1576441D01*
X838812Y1577303D01*
X836399Y1577010D01*
X834398Y1575629D01*
X833268Y1573476D01*
Y1571044D01*
X834398Y1568891D01*
X836399Y1567510D01*
X838812Y1567217D01*
X841086Y1568079D01*
X842698Y1569899D01*
X843280Y1572260D01*
Y1597660D02*
X842698Y1600021D01*
X841086Y1601841D01*
X838812Y1602703D01*
X836399Y1602410D01*
X834398Y1601029D01*
X833268Y1598876D01*
Y1596444D01*
X834398Y1594291D01*
X836399Y1592910D01*
X838812Y1592617D01*
X841086Y1593479D01*
X842698Y1595299D01*
X843280Y1597660D01*
Y1623060D02*
X842698Y1625421D01*
X841086Y1627241D01*
X838812Y1628103D01*
X836399Y1627810D01*
X834398Y1626429D01*
X833268Y1624276D01*
Y1621844D01*
X834398Y1619691D01*
X836399Y1618310D01*
X838812Y1618017D01*
X841086Y1618879D01*
X842698Y1620699D01*
X843280Y1623060D01*
Y1648460D02*
X842698Y1650821D01*
X841086Y1652641D01*
X838812Y1653503D01*
X836399Y1653210D01*
X834398Y1651829D01*
X833268Y1649676D01*
Y1647244D01*
X834398Y1645091D01*
X836399Y1643710D01*
X838812Y1643417D01*
X841086Y1644279D01*
X842698Y1646099D01*
X843280Y1648460D01*
Y1673860D02*
X842698Y1676221D01*
X841086Y1678041D01*
X838812Y1678903D01*
X836399Y1678610D01*
X834398Y1677229D01*
X833268Y1675076D01*
Y1672644D01*
X834398Y1670491D01*
X836399Y1669110D01*
X838812Y1668817D01*
X841086Y1669679D01*
X842698Y1671499D01*
X843280Y1673860D01*
Y1699260D02*
X842698Y1701621D01*
X841086Y1703441D01*
X838812Y1704303D01*
X836399Y1704010D01*
X834398Y1702629D01*
X833268Y1700476D01*
Y1698044D01*
X834398Y1695891D01*
X836399Y1694510D01*
X838812Y1694217D01*
X841086Y1695079D01*
X842698Y1696899D01*
X843280Y1699260D01*
Y1724660D02*
X842698Y1727021D01*
X841086Y1728841D01*
X838812Y1729703D01*
X836399Y1729410D01*
X834398Y1728029D01*
X833268Y1725876D01*
Y1723444D01*
X834398Y1721291D01*
X836399Y1719910D01*
X838812Y1719617D01*
X841086Y1720479D01*
X842698Y1722299D01*
X843280Y1724660D01*
Y1750060D02*
X842698Y1752421D01*
X841086Y1754241D01*
X838812Y1755103D01*
X836399Y1754810D01*
X834398Y1753429D01*
X833268Y1751276D01*
Y1748844D01*
X834398Y1746691D01*
X836399Y1745310D01*
X838812Y1745017D01*
X841086Y1745879D01*
X842698Y1747699D01*
X843280Y1750060D01*
Y1775460D02*
X842698Y1777821D01*
X841086Y1779641D01*
X838812Y1780503D01*
X836399Y1780210D01*
X834398Y1778829D01*
X833268Y1776676D01*
Y1774244D01*
X834398Y1772091D01*
X836399Y1770710D01*
X838812Y1770417D01*
X841086Y1771279D01*
X842698Y1773099D01*
X843280Y1775460D01*
Y1800860D02*
X842698Y1803221D01*
X841086Y1805041D01*
X838812Y1805903D01*
X836399Y1805610D01*
X834398Y1804229D01*
X833268Y1802076D01*
Y1799644D01*
X834398Y1797491D01*
X836399Y1796110D01*
X838812Y1795817D01*
X841086Y1796679D01*
X842698Y1798499D01*
X843280Y1800860D01*
Y1826260D02*
X842698Y1828621D01*
X841086Y1830441D01*
X838812Y1831303D01*
X836399Y1831010D01*
X834398Y1829629D01*
X833268Y1827476D01*
Y1825044D01*
X834398Y1822891D01*
X836399Y1821510D01*
X838812Y1821217D01*
X841086Y1822079D01*
X842698Y1823899D01*
X843280Y1826260D01*
Y1851660D02*
X842698Y1854021D01*
X841086Y1855841D01*
X838812Y1856703D01*
X836399Y1856410D01*
X834398Y1855029D01*
X833268Y1852876D01*
Y1850444D01*
X834398Y1848291D01*
X836399Y1846910D01*
X838812Y1846617D01*
X841086Y1847479D01*
X842698Y1849299D01*
X843280Y1851660D01*
Y1877060D02*
X842698Y1879421D01*
X841086Y1881241D01*
X838812Y1882103D01*
X836399Y1881810D01*
X834398Y1880429D01*
X833268Y1878276D01*
Y1875844D01*
X834398Y1873691D01*
X836399Y1872310D01*
X838812Y1872017D01*
X841086Y1872879D01*
X842698Y1874699D01*
X843280Y1877060D01*
Y1902460D02*
X842698Y1904821D01*
X841086Y1906641D01*
X838812Y1907503D01*
X836399Y1907210D01*
X834398Y1905829D01*
X833268Y1903676D01*
Y1901244D01*
X834398Y1899091D01*
X836399Y1897710D01*
X838812Y1897417D01*
X841086Y1898279D01*
X842698Y1900099D01*
X843280Y1902460D01*
X1357630Y1835150D02*
Y1845310D01*
X1367790D01*
Y1835150D01*
X1357630D01*
X1275080D02*
Y1845310D01*
X1285240D01*
Y1835150D01*
X1275080D01*
X1176020Y1478280D02*
Y1488440D01*
X1186180D01*
Y1478280D01*
X1176020D01*
Y1395730D02*
Y1405890D01*
X1186180D01*
Y1395730D01*
X1176020D01*
X919480Y1374140D02*
Y1384300D01*
X929640D01*
Y1374140D01*
X919480D01*
Y1291590D02*
Y1301750D01*
X929640D01*
Y1291590D01*
X919480D01*
X839470Y711200D02*
Y721360D01*
X849630D01*
Y711200D01*
X839470D01*
X922020D02*
Y721360D01*
X932180D01*
Y711200D01*
X922020D01*
X1272540Y1028700D02*
Y1038860D01*
X1282700D01*
Y1028700D01*
X1272540D01*
X1355090D02*
Y1038860D01*
X1365250D01*
Y1028700D01*
X1355090D01*
X1005840Y1155700D02*
Y1165860D01*
X1016000D01*
Y1155700D01*
X1005840D01*
X923290D02*
Y1165860D01*
X933450D01*
Y1155700D01*
X923290D01*
X1049020Y1090930D02*
X1051560Y1096010D01*
X1049020Y1101090D01*
X1054100Y1098550D01*
X1059180Y1101090D01*
X1056640Y1096010D01*
X1059180Y1090930D01*
X1054100Y1093470D01*
X1049020Y1090930D01*
Y1160780D02*
X1051560Y1165860D01*
X1049020Y1170940D01*
X1054100Y1168400D01*
X1059180Y1170940D01*
X1056640Y1165860D01*
X1059180Y1160780D01*
X1054100Y1163320D01*
X1049020Y1160780D01*
X1099820Y1090930D02*
X1102360Y1096010D01*
X1099820Y1101090D01*
X1104900Y1098550D01*
X1109980Y1101090D01*
X1107440Y1096010D01*
X1109980Y1090930D01*
X1104900Y1093470D01*
X1099820Y1090930D01*
Y1160780D02*
X1102360Y1165860D01*
X1099820Y1170940D01*
X1104900Y1168400D01*
X1109980Y1170940D01*
X1107440Y1165860D01*
X1109980Y1160780D01*
X1104900Y1163320D01*
X1099820Y1160780D01*
X718820Y1074420D02*
X713740Y1084580D01*
X723900D01*
X718820Y1074420D01*
X767620D02*
X762540Y1084580D01*
X772700D01*
X767620Y1074420D01*
X1177290Y1169670D02*
Y1179830D01*
X1187450D01*
Y1169670D01*
X1177290D01*
X1179322Y1171702D02*
Y1177798D01*
X1185418D01*
Y1171702D01*
X1179322D01*
X1311910Y1169670D02*
Y1179830D01*
X1322070D01*
Y1169670D01*
X1311910D01*
X1313942Y1171702D02*
Y1177798D01*
X1320038D01*
Y1171702D01*
X1313942D01*
X1206500Y1143000D02*
X1209040Y1148080D01*
X1206500Y1153160D01*
X1211580Y1150620D01*
X1216660Y1153160D01*
X1214120Y1148080D01*
X1216660Y1143000D01*
X1211580Y1145540D01*
X1206500Y1143000D01*
X1231900D02*
X1234440Y1148080D01*
X1231900Y1153160D01*
X1236980Y1150620D01*
X1242060Y1153160D01*
X1239520Y1148080D01*
X1242060Y1143000D01*
X1236980Y1145540D01*
X1231900Y1143000D01*
X1257300D02*
X1259840Y1148080D01*
X1257300Y1153160D01*
X1262380Y1150620D01*
X1267460Y1153160D01*
X1264920Y1148080D01*
X1267460Y1143000D01*
X1262380Y1145540D01*
X1257300Y1143000D01*
X1282700D02*
X1285240Y1148080D01*
X1282700Y1153160D01*
X1287780Y1150620D01*
X1292860Y1153160D01*
X1290320Y1148080D01*
X1292860Y1143000D01*
X1287780Y1145540D01*
X1282700Y1143000D01*
X1442720Y1173480D02*
Y1170940D01*
X1447800D01*
Y1173480D01*
X1450340D01*
Y1178560D01*
X1447800D01*
Y1181100D01*
X1442720D01*
Y1178560D01*
X1440180D01*
Y1173480D01*
X1442720D01*
X1417320D02*
Y1170940D01*
X1422400D01*
Y1173480D01*
X1424940D01*
Y1178560D01*
X1422400D01*
Y1181100D01*
X1417320D01*
Y1178560D01*
X1414780D01*
Y1173480D01*
X1417320D01*
X1391920D02*
Y1170940D01*
X1397000D01*
Y1173480D01*
X1399540D01*
Y1178560D01*
X1397000D01*
Y1181100D01*
X1391920D01*
Y1178560D01*
X1389380D01*
Y1173480D01*
X1391920D01*
X1442720Y1122680D02*
Y1120140D01*
X1447800D01*
Y1122680D01*
X1450340D01*
Y1127760D01*
X1447800D01*
Y1130300D01*
X1442720D01*
Y1127760D01*
X1440180D01*
Y1122680D01*
X1442720D01*
X1417320D02*
Y1120140D01*
X1422400D01*
Y1122680D01*
X1424940D01*
Y1127760D01*
X1422400D01*
Y1130300D01*
X1417320D01*
Y1127760D01*
X1414780D01*
Y1122680D01*
X1417320D01*
X1391920D02*
Y1120140D01*
X1397000D01*
Y1122680D01*
X1399540D01*
Y1127760D01*
X1397000D01*
Y1130300D01*
X1391920D01*
Y1127760D01*
X1389380D01*
Y1122680D01*
X1391920D01*
X1357630Y1084580D02*
Y1094740D01*
X1367790D01*
Y1084580D01*
X1357630D01*
X1230630D02*
Y1094740D01*
X1240790D01*
Y1084580D01*
X1230630D01*
X960120Y1054100D02*
Y1064260D01*
X970280D01*
Y1054100D01*
X960120D01*
X833120D02*
Y1064260D01*
X843280D01*
Y1054100D01*
X833120D01*
X944880Y789940D02*
X944298Y792301D01*
X942686Y794121D01*
X940412Y794983D01*
X937999Y794690D01*
X935998Y793309D01*
X934868Y791156D01*
Y788724D01*
X935998Y786571D01*
X937999Y785190D01*
X940412Y784897D01*
X942686Y785759D01*
X944298Y787579D01*
X944880Y789940D01*
X932180D02*
X931598Y792301D01*
X929986Y794121D01*
X927712Y794983D01*
X925299Y794690D01*
X923298Y793309D01*
X922168Y791156D01*
Y788724D01*
X923298Y786571D01*
X925299Y785190D01*
X927712Y784897D01*
X929986Y785759D01*
X931598Y787579D01*
X932180Y789940D01*
X919480D02*
X918898Y792301D01*
X917286Y794121D01*
X915012Y794983D01*
X912599Y794690D01*
X910598Y793309D01*
X909468Y791156D01*
Y788724D01*
X910598Y786571D01*
X912599Y785190D01*
X915012Y784897D01*
X917286Y785759D01*
X918898Y787579D01*
X919480Y789940D01*
X566420Y1206500D02*
X565838Y1208861D01*
X564226Y1210681D01*
X561952Y1211543D01*
X559539Y1211250D01*
X557538Y1209869D01*
X556408Y1207716D01*
Y1205284D01*
X557538Y1203131D01*
X559539Y1201750D01*
X561952Y1201457D01*
X564226Y1202319D01*
X565838Y1204139D01*
X566420Y1206500D01*
Y1181100D02*
X565838Y1183461D01*
X564226Y1185281D01*
X561952Y1186143D01*
X559539Y1185850D01*
X557538Y1184469D01*
X556408Y1182316D01*
Y1179884D01*
X557538Y1177731D01*
X559539Y1176350D01*
X561952Y1176057D01*
X564226Y1176919D01*
X565838Y1178739D01*
X566420Y1181100D01*
Y1155700D02*
X565838Y1158061D01*
X564226Y1159881D01*
X561952Y1160743D01*
X559539Y1160450D01*
X557538Y1159069D01*
X556408Y1156916D01*
Y1154484D01*
X557538Y1152331D01*
X559539Y1150950D01*
X561952Y1150657D01*
X564226Y1151519D01*
X565838Y1153339D01*
X566420Y1155700D01*
Y1130300D02*
X565838Y1132661D01*
X564226Y1134481D01*
X561952Y1135343D01*
X559539Y1135050D01*
X557538Y1133669D01*
X556408Y1131516D01*
Y1129084D01*
X557538Y1126931D01*
X559539Y1125550D01*
X561952Y1125257D01*
X564226Y1126119D01*
X565838Y1127939D01*
X566420Y1130300D01*
Y1104900D02*
X565838Y1107261D01*
X564226Y1109081D01*
X561952Y1109943D01*
X559539Y1109650D01*
X557538Y1108269D01*
X556408Y1106116D01*
Y1103684D01*
X557538Y1101531D01*
X559539Y1100150D01*
X561952Y1099857D01*
X564226Y1100719D01*
X565838Y1102539D01*
X566420Y1104900D01*
Y1079500D02*
X565838Y1081861D01*
X564226Y1083681D01*
X561952Y1084543D01*
X559539Y1084250D01*
X557538Y1082869D01*
X556408Y1080716D01*
Y1078284D01*
X557538Y1076131D01*
X559539Y1074750D01*
X561952Y1074457D01*
X564226Y1075319D01*
X565838Y1077139D01*
X566420Y1079500D01*
Y1054100D02*
X565838Y1056461D01*
X564226Y1058281D01*
X561952Y1059143D01*
X559539Y1058850D01*
X557538Y1057469D01*
X556408Y1055316D01*
Y1052884D01*
X557538Y1050731D01*
X559539Y1049350D01*
X561952Y1049057D01*
X564226Y1049919D01*
X565838Y1051739D01*
X566420Y1054100D01*
X871220Y774700D02*
X873760Y779780D01*
X871220Y784860D01*
X876300Y782320D01*
X881380Y784860D01*
X878840Y779780D01*
X881380Y774700D01*
X876300Y777240D01*
X871220Y774700D01*
X801370D02*
X803910Y779780D01*
X801370Y784860D01*
X806450Y782320D01*
X811530Y784860D01*
X808990Y779780D01*
X811530Y774700D01*
X806450Y777240D01*
X801370Y774700D01*
X1409700Y1056640D02*
X1412240D01*
X1414780Y1059180D01*
X1417320Y1056640D01*
X1419860D01*
Y1059180D01*
X1417320Y1061720D01*
X1419860Y1064260D01*
Y1066800D01*
X1417320D01*
X1414780Y1064260D01*
X1412240Y1066800D01*
X1409700D01*
Y1064260D01*
X1412240Y1061720D01*
X1409700Y1059180D01*
Y1056640D01*
X1384300D02*
X1386840D01*
X1389380Y1059180D01*
X1391920Y1056640D01*
X1394460D01*
Y1059180D01*
X1391920Y1061720D01*
X1394460Y1064260D01*
Y1066800D01*
X1391920D01*
X1389380Y1064260D01*
X1386840Y1066800D01*
X1384300D01*
Y1064260D01*
X1386840Y1061720D01*
X1384300Y1059180D01*
Y1056640D01*
X981710Y811530D02*
X986790Y816610D01*
X991870Y811530D01*
X986790Y806450D01*
X981710Y811530D01*
X1195070D02*
X1194488Y813891D01*
X1192876Y815711D01*
X1190602Y816573D01*
X1188189Y816280D01*
X1186188Y814899D01*
X1185058Y812746D01*
Y810314D01*
X1186188Y808161D01*
X1188189Y806780D01*
X1190602Y806487D01*
X1192876Y807349D01*
X1194488Y809169D01*
X1195070Y811530D01*
X1169670D02*
X1169088Y813891D01*
X1167476Y815711D01*
X1165202Y816573D01*
X1162789Y816280D01*
X1160788Y814899D01*
X1159658Y812746D01*
Y810314D01*
X1160788Y808161D01*
X1162789Y806780D01*
X1165202Y806487D01*
X1167476Y807349D01*
X1169088Y809169D01*
X1169670Y811530D01*
X1144270D02*
X1143688Y813891D01*
X1142076Y815711D01*
X1139802Y816573D01*
X1137389Y816280D01*
X1135388Y814899D01*
X1134258Y812746D01*
Y810314D01*
X1135388Y808161D01*
X1137389Y806780D01*
X1139802Y806487D01*
X1142076Y807349D01*
X1143688Y809169D01*
X1144270Y811530D01*
X1118870D02*
X1118288Y813891D01*
X1116676Y815711D01*
X1114402Y816573D01*
X1111989Y816280D01*
X1109988Y814899D01*
X1108858Y812746D01*
Y810314D01*
X1109988Y808161D01*
X1111989Y806780D01*
X1114402Y806487D01*
X1116676Y807349D01*
X1118288Y809169D01*
X1118870Y811530D01*
X1093470D02*
X1092888Y813891D01*
X1091276Y815711D01*
X1089002Y816573D01*
X1086589Y816280D01*
X1084588Y814899D01*
X1083458Y812746D01*
Y810314D01*
X1084588Y808161D01*
X1086589Y806780D01*
X1089002Y806487D01*
X1091276Y807349D01*
X1092888Y809169D01*
X1093470Y811530D01*
X1068070D02*
X1067488Y813891D01*
X1065876Y815711D01*
X1063602Y816573D01*
X1061189Y816280D01*
X1059188Y814899D01*
X1058058Y812746D01*
Y810314D01*
X1059188Y808161D01*
X1061189Y806780D01*
X1063602Y806487D01*
X1065876Y807349D01*
X1067488Y809169D01*
X1068070Y811530D01*
X1042670D02*
X1042088Y813891D01*
X1040476Y815711D01*
X1038202Y816573D01*
X1035789Y816280D01*
X1033788Y814899D01*
X1032658Y812746D01*
Y810314D01*
X1033788Y808161D01*
X1035789Y806780D01*
X1038202Y806487D01*
X1040476Y807349D01*
X1042088Y809169D01*
X1042670Y811530D01*
X1017270D02*
X1016688Y813891D01*
X1015076Y815711D01*
X1012802Y816573D01*
X1010389Y816280D01*
X1008388Y814899D01*
X1007258Y812746D01*
Y810314D01*
X1008388Y808161D01*
X1010389Y806780D01*
X1012802Y806487D01*
X1015076Y807349D01*
X1016688Y809169D01*
X1017270Y811530D01*
X678180Y1145540D02*
X680720D01*
X683260Y1148080D01*
X685800Y1145540D01*
X688340D01*
Y1148080D01*
X685800Y1150620D01*
X688340Y1153160D01*
Y1155700D01*
X685800D01*
X683260Y1153160D01*
X680720Y1155700D01*
X678180D01*
Y1153160D01*
X680720Y1150620D01*
X678180Y1148080D01*
Y1145540D01*
X703580D02*
X706120D01*
X708660Y1148080D01*
X711200Y1145540D01*
X713740D01*
Y1148080D01*
X711200Y1150620D01*
X713740Y1153160D01*
Y1155700D01*
X711200D01*
X708660Y1153160D01*
X706120Y1155700D01*
X703580D01*
Y1153160D01*
X706120Y1150620D01*
X703580Y1148080D01*
Y1145540D01*
X764540Y1140460D02*
X767080D01*
X769620Y1143000D01*
X772160Y1140460D01*
X774700D01*
Y1143000D01*
X772160Y1145540D01*
X774700Y1148080D01*
Y1150620D01*
X772160D01*
X769620Y1148080D01*
X767080Y1150620D01*
X764540D01*
Y1148080D01*
X767080Y1145540D01*
X764540Y1143000D01*
Y1140460D01*
X789940D02*
X792480D01*
X795020Y1143000D01*
X797560Y1140460D01*
X800100D01*
Y1143000D01*
X797560Y1145540D01*
X800100Y1148080D01*
Y1150620D01*
X797560D01*
X795020Y1148080D01*
X792480Y1150620D01*
X789940D01*
Y1148080D01*
X792480Y1145540D01*
X789940Y1143000D01*
Y1140460D01*
X891540Y1089660D02*
X894080D01*
X896620Y1092200D01*
X899160Y1089660D01*
X901700D01*
Y1092200D01*
X899160Y1094740D01*
X901700Y1097280D01*
Y1099820D01*
X899160D01*
X896620Y1097280D01*
X894080Y1099820D01*
X891540D01*
Y1097280D01*
X894080Y1094740D01*
X891540Y1092200D01*
Y1089660D01*
Y1115060D02*
X894080D01*
X896620Y1117600D01*
X899160Y1115060D01*
X901700D01*
Y1117600D01*
X899160Y1120140D01*
X901700Y1122680D01*
Y1125220D01*
X899160D01*
X896620Y1122680D01*
X894080Y1125220D01*
X891540D01*
Y1122680D01*
X894080Y1120140D01*
X891540Y1117600D01*
Y1115060D01*
X557530Y927100D02*
X560070D01*
X562610Y929640D01*
X565150Y927100D01*
X567690D01*
Y929640D01*
X565150Y932180D01*
X567690Y934720D01*
Y937260D01*
X565150D01*
X562610Y934720D01*
X560070Y937260D01*
X557530D01*
Y934720D01*
X560070Y932180D01*
X557530Y929640D01*
Y927100D01*
Y901700D02*
X560070D01*
X562610Y904240D01*
X565150Y901700D01*
X567690D01*
Y904240D01*
X565150Y906780D01*
X567690Y909320D01*
Y911860D01*
X565150D01*
X562610Y909320D01*
X560070Y911860D01*
X557530D01*
Y909320D01*
X560070Y906780D01*
X557530Y904240D01*
Y901700D01*
Y876300D02*
X560070D01*
X562610Y878840D01*
X565150Y876300D01*
X567690D01*
Y878840D01*
X565150Y881380D01*
X567690Y883920D01*
Y886460D01*
X565150D01*
X562610Y883920D01*
X560070Y886460D01*
X557530D01*
Y883920D01*
X560070Y881380D01*
X557530Y878840D01*
Y876300D01*
Y850900D02*
X560070D01*
X562610Y853440D01*
X565150Y850900D01*
X567690D01*
Y853440D01*
X565150Y855980D01*
X567690Y858520D01*
Y861060D01*
X565150D01*
X562610Y858520D01*
X560070Y861060D01*
X557530D01*
Y858520D01*
X560070Y855980D01*
X557530Y853440D01*
Y850900D01*
Y830580D02*
X562610Y835660D01*
X567690Y830580D01*
X562610Y825500D01*
X557530Y830580D01*
X871220Y652780D02*
X873760D01*
X876300Y655320D01*
X878840Y652780D01*
X881380D01*
Y655320D01*
X878840Y657860D01*
X881380Y660400D01*
Y662940D01*
X878840D01*
X876300Y660400D01*
X873760Y662940D01*
X871220D01*
Y660400D01*
X873760Y657860D01*
X871220Y655320D01*
Y652780D01*
X896620D02*
X899160D01*
X901700Y655320D01*
X904240Y652780D01*
X906780D01*
Y655320D01*
X904240Y657860D01*
X906780Y660400D01*
Y662940D01*
X904240D01*
X901700Y660400D01*
X899160Y662940D01*
X896620D01*
Y660400D01*
X899160Y657860D01*
X896620Y655320D01*
Y652780D01*
X922020D02*
X924560D01*
X927100Y655320D01*
X929640Y652780D01*
X932180D01*
Y655320D01*
X929640Y657860D01*
X932180Y660400D01*
Y662940D01*
X929640D01*
X927100Y660400D01*
X924560Y662940D01*
X922020D01*
Y660400D01*
X924560Y657860D01*
X922020Y655320D01*
Y652780D01*
X947420D02*
X949960D01*
X952500Y655320D01*
X955040Y652780D01*
X957580D01*
Y655320D01*
X955040Y657860D01*
X957580Y660400D01*
Y662940D01*
X955040D01*
X952500Y660400D01*
X949960Y662940D01*
X947420D01*
Y660400D01*
X949960Y657860D01*
X947420Y655320D01*
Y652780D01*
X972820Y657860D02*
X977900Y662940D01*
X982980Y657860D01*
X977900Y652780D01*
X972820Y657860D01*
X1003300Y1201420D02*
X1005840D01*
X1008380Y1203960D01*
X1010920Y1201420D01*
X1013460D01*
Y1203960D01*
X1010920Y1206500D01*
X1013460Y1209040D01*
Y1211580D01*
X1010920D01*
X1008380Y1209040D01*
X1005840Y1211580D01*
X1003300D01*
Y1209040D01*
X1005840Y1206500D01*
X1003300Y1203960D01*
Y1201420D01*
X977900D02*
X980440D01*
X982980Y1203960D01*
X985520Y1201420D01*
X988060D01*
Y1203960D01*
X985520Y1206500D01*
X988060Y1209040D01*
Y1211580D01*
X985520D01*
X982980Y1209040D01*
X980440Y1211580D01*
X977900D01*
Y1209040D01*
X980440Y1206500D01*
X977900Y1203960D01*
Y1201420D01*
X952500D02*
X955040D01*
X957580Y1203960D01*
X960120Y1201420D01*
X962660D01*
Y1203960D01*
X960120Y1206500D01*
X962660Y1209040D01*
Y1211580D01*
X960120D01*
X957580Y1209040D01*
X955040Y1211580D01*
X952500D01*
Y1209040D01*
X955040Y1206500D01*
X952500Y1203960D01*
Y1201420D01*
X927100D02*
X929640D01*
X932180Y1203960D01*
X934720Y1201420D01*
X937260D01*
Y1203960D01*
X934720Y1206500D01*
X937260Y1209040D01*
Y1211580D01*
X934720D01*
X932180Y1209040D01*
X929640Y1211580D01*
X927100D01*
Y1209040D01*
X929640Y1206500D01*
X927100Y1203960D01*
Y1201420D01*
X901700Y1206500D02*
X906780Y1211580D01*
X911860Y1206500D01*
X906780Y1201420D01*
X901700Y1206500D01*
X1318260Y886460D02*
X1320800D01*
X1323340Y889000D01*
X1325880Y886460D01*
X1328420D01*
Y889000D01*
X1325880Y891540D01*
X1328420Y894080D01*
Y896620D01*
X1325880D01*
X1323340Y894080D01*
X1320800Y896620D01*
X1318260D01*
Y894080D01*
X1320800Y891540D01*
X1318260Y889000D01*
Y886460D01*
Y911860D02*
X1320800D01*
X1323340Y914400D01*
X1325880Y911860D01*
X1328420D01*
Y914400D01*
X1325880Y916940D01*
X1328420Y919480D01*
Y922020D01*
X1325880D01*
X1323340Y919480D01*
X1320800Y922020D01*
X1318260D01*
Y919480D01*
X1320800Y916940D01*
X1318260Y914400D01*
Y911860D01*
Y937260D02*
X1320800D01*
X1323340Y939800D01*
X1325880Y937260D01*
X1328420D01*
Y939800D01*
X1325880Y942340D01*
X1328420Y944880D01*
Y947420D01*
X1325880D01*
X1323340Y944880D01*
X1320800Y947420D01*
X1318260D01*
Y944880D01*
X1320800Y942340D01*
X1318260Y939800D01*
Y937260D01*
Y962660D02*
X1320800D01*
X1323340Y965200D01*
X1325880Y962660D01*
X1328420D01*
Y965200D01*
X1325880Y967740D01*
X1328420Y970280D01*
Y972820D01*
X1325880D01*
X1323340Y970280D01*
X1320800Y972820D01*
X1318260D01*
Y970280D01*
X1320800Y967740D01*
X1318260Y965200D01*
Y962660D01*
Y993140D02*
X1323340Y998220D01*
X1328420Y993140D01*
X1323340Y988060D01*
X1318260Y993140D01*
X712470Y862330D02*
X711888Y864691D01*
X710276Y866511D01*
X708002Y867373D01*
X705589Y867080D01*
X703588Y865699D01*
X702458Y863546D01*
Y861114D01*
X703588Y858961D01*
X705589Y857580D01*
X708002Y857287D01*
X710276Y858149D01*
X711888Y859969D01*
X712470Y862330D01*
X737870D02*
X737288Y864691D01*
X735676Y866511D01*
X733402Y867373D01*
X730989Y867080D01*
X728988Y865699D01*
X727858Y863546D01*
Y861114D01*
X728988Y858961D01*
X730989Y857580D01*
X733402Y857287D01*
X735676Y858149D01*
X737288Y859969D01*
X737870Y862330D01*
X763270D02*
X762688Y864691D01*
X761076Y866511D01*
X758802Y867373D01*
X756389Y867080D01*
X754388Y865699D01*
X753258Y863546D01*
Y861114D01*
X754388Y858961D01*
X756389Y857580D01*
X758802Y857287D01*
X761076Y858149D01*
X762688Y859969D01*
X763270Y862330D01*
X788670D02*
X788088Y864691D01*
X786476Y866511D01*
X784202Y867373D01*
X781789Y867080D01*
X779788Y865699D01*
X778658Y863546D01*
Y861114D01*
X779788Y858961D01*
X781789Y857580D01*
X784202Y857287D01*
X786476Y858149D01*
X788088Y859969D01*
X788670Y862330D01*
X814070D02*
X813488Y864691D01*
X811876Y866511D01*
X809602Y867373D01*
X807189Y867080D01*
X805188Y865699D01*
X804058Y863546D01*
Y861114D01*
X805188Y858961D01*
X807189Y857580D01*
X809602Y857287D01*
X811876Y858149D01*
X813488Y859969D01*
X814070Y862330D01*
X839470D02*
X838888Y864691D01*
X837276Y866511D01*
X835002Y867373D01*
X832589Y867080D01*
X830588Y865699D01*
X829458Y863546D01*
Y861114D01*
X830588Y858961D01*
X832589Y857580D01*
X835002Y857287D01*
X837276Y858149D01*
X838888Y859969D01*
X839470Y862330D01*
X864870D02*
X864288Y864691D01*
X862676Y866511D01*
X860402Y867373D01*
X857989Y867080D01*
X855988Y865699D01*
X854858Y863546D01*
Y861114D01*
X855988Y858961D01*
X857989Y857580D01*
X860402Y857287D01*
X862676Y858149D01*
X864288Y859969D01*
X864870Y862330D01*
X890270D02*
X889688Y864691D01*
X888076Y866511D01*
X885802Y867373D01*
X883389Y867080D01*
X881388Y865699D01*
X880258Y863546D01*
Y861114D01*
X881388Y858961D01*
X883389Y857580D01*
X885802Y857287D01*
X888076Y858149D01*
X889688Y859969D01*
X890270Y862330D01*
X915670D02*
X915088Y864691D01*
X913476Y866511D01*
X911202Y867373D01*
X908789Y867080D01*
X906788Y865699D01*
X905658Y863546D01*
Y861114D01*
X906788Y858961D01*
X908789Y857580D01*
X911202Y857287D01*
X913476Y858149D01*
X915088Y859969D01*
X915670Y862330D01*
X941070D02*
X940488Y864691D01*
X938876Y866511D01*
X936602Y867373D01*
X934189Y867080D01*
X932188Y865699D01*
X931058Y863546D01*
Y861114D01*
X932188Y858961D01*
X934189Y857580D01*
X936602Y857287D01*
X938876Y858149D01*
X940488Y859969D01*
X941070Y862330D01*
X966470D02*
X965888Y864691D01*
X964276Y866511D01*
X962002Y867373D01*
X959589Y867080D01*
X957588Y865699D01*
X956458Y863546D01*
Y861114D01*
X957588Y858961D01*
X959589Y857580D01*
X962002Y857287D01*
X964276Y858149D01*
X965888Y859969D01*
X966470Y862330D01*
X991870D02*
X991288Y864691D01*
X989676Y866511D01*
X987402Y867373D01*
X984989Y867080D01*
X982988Y865699D01*
X981858Y863546D01*
Y861114D01*
X982988Y858961D01*
X984989Y857580D01*
X987402Y857287D01*
X989676Y858149D01*
X991288Y859969D01*
X991870Y862330D01*
X1017270D02*
X1016688Y864691D01*
X1015076Y866511D01*
X1012802Y867373D01*
X1010389Y867080D01*
X1008388Y865699D01*
X1007258Y863546D01*
Y861114D01*
X1008388Y858961D01*
X1010389Y857580D01*
X1012802Y857287D01*
X1015076Y858149D01*
X1016688Y859969D01*
X1017270Y862330D01*
X1042670D02*
X1042088Y864691D01*
X1040476Y866511D01*
X1038202Y867373D01*
X1035789Y867080D01*
X1033788Y865699D01*
X1032658Y863546D01*
Y861114D01*
X1033788Y858961D01*
X1035789Y857580D01*
X1038202Y857287D01*
X1040476Y858149D01*
X1042088Y859969D01*
X1042670Y862330D01*
X1068070D02*
X1067488Y864691D01*
X1065876Y866511D01*
X1063602Y867373D01*
X1061189Y867080D01*
X1059188Y865699D01*
X1058058Y863546D01*
Y861114D01*
X1059188Y858961D01*
X1061189Y857580D01*
X1063602Y857287D01*
X1065876Y858149D01*
X1067488Y859969D01*
X1068070Y862330D01*
X1093470D02*
X1092888Y864691D01*
X1091276Y866511D01*
X1089002Y867373D01*
X1086589Y867080D01*
X1084588Y865699D01*
X1083458Y863546D01*
Y861114D01*
X1084588Y858961D01*
X1086589Y857580D01*
X1089002Y857287D01*
X1091276Y858149D01*
X1092888Y859969D01*
X1093470Y862330D01*
X1118870D02*
X1118288Y864691D01*
X1116676Y866511D01*
X1114402Y867373D01*
X1111989Y867080D01*
X1109988Y865699D01*
X1108858Y863546D01*
Y861114D01*
X1109988Y858961D01*
X1111989Y857580D01*
X1114402Y857287D01*
X1116676Y858149D01*
X1118288Y859969D01*
X1118870Y862330D01*
X1144270D02*
X1143688Y864691D01*
X1142076Y866511D01*
X1139802Y867373D01*
X1137389Y867080D01*
X1135388Y865699D01*
X1134258Y863546D01*
Y861114D01*
X1135388Y858961D01*
X1137389Y857580D01*
X1139802Y857287D01*
X1142076Y858149D01*
X1143688Y859969D01*
X1144270Y862330D01*
X1169670D02*
X1169088Y864691D01*
X1167476Y866511D01*
X1165202Y867373D01*
X1162789Y867080D01*
X1160788Y865699D01*
X1159658Y863546D01*
Y861114D01*
X1160788Y858961D01*
X1162789Y857580D01*
X1165202Y857287D01*
X1167476Y858149D01*
X1169088Y859969D01*
X1169670Y862330D01*
X1195070D02*
X1194488Y864691D01*
X1192876Y866511D01*
X1190602Y867373D01*
X1188189Y867080D01*
X1186188Y865699D01*
X1185058Y863546D01*
Y861114D01*
X1186188Y858961D01*
X1188189Y857580D01*
X1190602Y857287D01*
X1192876Y858149D01*
X1194488Y859969D01*
X1195070Y862330D01*
X712470Y1014730D02*
X711888Y1017091D01*
X710276Y1018911D01*
X708002Y1019773D01*
X705589Y1019480D01*
X703588Y1018099D01*
X702458Y1015946D01*
Y1013514D01*
X703588Y1011361D01*
X705589Y1009980D01*
X708002Y1009687D01*
X710276Y1010549D01*
X711888Y1012369D01*
X712470Y1014730D01*
X737870D02*
X737288Y1017091D01*
X735676Y1018911D01*
X733402Y1019773D01*
X730989Y1019480D01*
X728988Y1018099D01*
X727858Y1015946D01*
Y1013514D01*
X728988Y1011361D01*
X730989Y1009980D01*
X733402Y1009687D01*
X735676Y1010549D01*
X737288Y1012369D01*
X737870Y1014730D01*
X763270D02*
X762688Y1017091D01*
X761076Y1018911D01*
X758802Y1019773D01*
X756389Y1019480D01*
X754388Y1018099D01*
X753258Y1015946D01*
Y1013514D01*
X754388Y1011361D01*
X756389Y1009980D01*
X758802Y1009687D01*
X761076Y1010549D01*
X762688Y1012369D01*
X763270Y1014730D01*
X788670D02*
X788088Y1017091D01*
X786476Y1018911D01*
X784202Y1019773D01*
X781789Y1019480D01*
X779788Y1018099D01*
X778658Y1015946D01*
Y1013514D01*
X779788Y1011361D01*
X781789Y1009980D01*
X784202Y1009687D01*
X786476Y1010549D01*
X788088Y1012369D01*
X788670Y1014730D01*
X814070D02*
X813488Y1017091D01*
X811876Y1018911D01*
X809602Y1019773D01*
X807189Y1019480D01*
X805188Y1018099D01*
X804058Y1015946D01*
Y1013514D01*
X805188Y1011361D01*
X807189Y1009980D01*
X809602Y1009687D01*
X811876Y1010549D01*
X813488Y1012369D01*
X814070Y1014730D01*
X839470D02*
X838888Y1017091D01*
X837276Y1018911D01*
X835002Y1019773D01*
X832589Y1019480D01*
X830588Y1018099D01*
X829458Y1015946D01*
Y1013514D01*
X830588Y1011361D01*
X832589Y1009980D01*
X835002Y1009687D01*
X837276Y1010549D01*
X838888Y1012369D01*
X839470Y1014730D01*
X864870D02*
X864288Y1017091D01*
X862676Y1018911D01*
X860402Y1019773D01*
X857989Y1019480D01*
X855988Y1018099D01*
X854858Y1015946D01*
Y1013514D01*
X855988Y1011361D01*
X857989Y1009980D01*
X860402Y1009687D01*
X862676Y1010549D01*
X864288Y1012369D01*
X864870Y1014730D01*
X890270D02*
X889688Y1017091D01*
X888076Y1018911D01*
X885802Y1019773D01*
X883389Y1019480D01*
X881388Y1018099D01*
X880258Y1015946D01*
Y1013514D01*
X881388Y1011361D01*
X883389Y1009980D01*
X885802Y1009687D01*
X888076Y1010549D01*
X889688Y1012369D01*
X890270Y1014730D01*
X915670D02*
X915088Y1017091D01*
X913476Y1018911D01*
X911202Y1019773D01*
X908789Y1019480D01*
X906788Y1018099D01*
X905658Y1015946D01*
Y1013514D01*
X906788Y1011361D01*
X908789Y1009980D01*
X911202Y1009687D01*
X913476Y1010549D01*
X915088Y1012369D01*
X915670Y1014730D01*
X941070D02*
X940488Y1017091D01*
X938876Y1018911D01*
X936602Y1019773D01*
X934189Y1019480D01*
X932188Y1018099D01*
X931058Y1015946D01*
Y1013514D01*
X932188Y1011361D01*
X934189Y1009980D01*
X936602Y1009687D01*
X938876Y1010549D01*
X940488Y1012369D01*
X941070Y1014730D01*
X966470D02*
X965888Y1017091D01*
X964276Y1018911D01*
X962002Y1019773D01*
X959589Y1019480D01*
X957588Y1018099D01*
X956458Y1015946D01*
Y1013514D01*
X957588Y1011361D01*
X959589Y1009980D01*
X962002Y1009687D01*
X964276Y1010549D01*
X965888Y1012369D01*
X966470Y1014730D01*
X991870D02*
X991288Y1017091D01*
X989676Y1018911D01*
X987402Y1019773D01*
X984989Y1019480D01*
X982988Y1018099D01*
X981858Y1015946D01*
Y1013514D01*
X982988Y1011361D01*
X984989Y1009980D01*
X987402Y1009687D01*
X989676Y1010549D01*
X991288Y1012369D01*
X991870Y1014730D01*
X1017270D02*
X1016688Y1017091D01*
X1015076Y1018911D01*
X1012802Y1019773D01*
X1010389Y1019480D01*
X1008388Y1018099D01*
X1007258Y1015946D01*
Y1013514D01*
X1008388Y1011361D01*
X1010389Y1009980D01*
X1012802Y1009687D01*
X1015076Y1010549D01*
X1016688Y1012369D01*
X1017270Y1014730D01*
X1042670D02*
X1042088Y1017091D01*
X1040476Y1018911D01*
X1038202Y1019773D01*
X1035789Y1019480D01*
X1033788Y1018099D01*
X1032658Y1015946D01*
Y1013514D01*
X1033788Y1011361D01*
X1035789Y1009980D01*
X1038202Y1009687D01*
X1040476Y1010549D01*
X1042088Y1012369D01*
X1042670Y1014730D01*
X1068070D02*
X1067488Y1017091D01*
X1065876Y1018911D01*
X1063602Y1019773D01*
X1061189Y1019480D01*
X1059188Y1018099D01*
X1058058Y1015946D01*
Y1013514D01*
X1059188Y1011361D01*
X1061189Y1009980D01*
X1063602Y1009687D01*
X1065876Y1010549D01*
X1067488Y1012369D01*
X1068070Y1014730D01*
X1093470D02*
X1092888Y1017091D01*
X1091276Y1018911D01*
X1089002Y1019773D01*
X1086589Y1019480D01*
X1084588Y1018099D01*
X1083458Y1015946D01*
Y1013514D01*
X1084588Y1011361D01*
X1086589Y1009980D01*
X1089002Y1009687D01*
X1091276Y1010549D01*
X1092888Y1012369D01*
X1093470Y1014730D01*
X1118870D02*
X1118288Y1017091D01*
X1116676Y1018911D01*
X1114402Y1019773D01*
X1111989Y1019480D01*
X1109988Y1018099D01*
X1108858Y1015946D01*
Y1013514D01*
X1109988Y1011361D01*
X1111989Y1009980D01*
X1114402Y1009687D01*
X1116676Y1010549D01*
X1118288Y1012369D01*
X1118870Y1014730D01*
X1144270D02*
X1143688Y1017091D01*
X1142076Y1018911D01*
X1139802Y1019773D01*
X1137389Y1019480D01*
X1135388Y1018099D01*
X1134258Y1015946D01*
Y1013514D01*
X1135388Y1011361D01*
X1137389Y1009980D01*
X1139802Y1009687D01*
X1142076Y1010549D01*
X1143688Y1012369D01*
X1144270Y1014730D01*
X1169670D02*
X1169088Y1017091D01*
X1167476Y1018911D01*
X1165202Y1019773D01*
X1162789Y1019480D01*
X1160788Y1018099D01*
X1159658Y1015946D01*
Y1013514D01*
X1160788Y1011361D01*
X1162789Y1009980D01*
X1165202Y1009687D01*
X1167476Y1010549D01*
X1169088Y1012369D01*
X1169670Y1014730D01*
X1195070D02*
X1194488Y1017091D01*
X1192876Y1018911D01*
X1190602Y1019773D01*
X1188189Y1019480D01*
X1186188Y1018099D01*
X1185058Y1015946D01*
Y1013514D01*
X1186188Y1011361D01*
X1188189Y1009980D01*
X1190602Y1009687D01*
X1192876Y1010549D01*
X1194488Y1012369D01*
X1195070Y1014730D01*
M02*
