%FSLAX44Y44*%
%MOMM*%
G71*
G01*
G75*
%ADD10C,1.2700*%
%ADD11C,1.0160*%
%ADD12C,0.7620*%
%ADD13C,1.2540*%
%ADD14C,1.4000*%
%ADD15R,1.5000X1.5000*%
%ADD16C,1.5000*%
%ADD17C,1.2700*%
%ADD18C,4.6748*%
%ADD19C,2.0000*%
%ADD20C,1.8500*%
%ADD21R,1.8500X1.8500*%
%ADD22O,2.0000X1.0000*%
%ADD23O,2.0000X1.0000*%
%ADD24C,1.7000*%
%ADD25R,1.5748X1.5748*%
%ADD26C,1.5748*%
%ADD27O,1.0000X2.0000*%
%ADD28O,1.0000X2.0000*%
D10*
X1404620Y1610360D02*
Y1865630D01*
Y1601507D02*
Y1610360D01*
X1267460Y1526540D02*
Y1607820D01*
X1242060Y1501140D02*
X1267460Y1526540D01*
Y1607820D02*
X1334770Y1675130D01*
X1234440Y1501140D02*
X1242060D01*
X1261110Y1882140D02*
X1277620Y1865630D01*
X1234440Y1882140D02*
X1261110D01*
X838200Y1775460D02*
X899160Y1836420D01*
Y1949450D01*
X943610Y1993900D01*
X1290283D01*
X1334770Y1949413D01*
Y1675130D02*
Y1949413D01*
X599440Y1819910D02*
X607060D01*
X626110Y1800860D01*
Y1720850D02*
Y1800860D01*
Y1720850D02*
X687070D01*
X595630D02*
X626110D01*
X595630Y1695450D02*
X679450D01*
X580390D02*
X595630D01*
X558800Y2012950D02*
X604520D01*
X521970Y1976120D02*
X558800Y2012950D01*
X521970Y1799590D02*
Y1976120D01*
Y1799590D02*
X566420Y1755140D01*
Y1681480D02*
Y1755140D01*
X647094Y2009896D02*
X701040Y2063842D01*
Y2071370D01*
X614772Y2009896D02*
X647094D01*
X611718Y2012950D02*
X614772Y2009896D01*
X604520Y2012950D02*
X611718D01*
X1205230Y1882140D02*
X1234440D01*
Y1780540D02*
X1282700D01*
X1319530Y1817370D01*
Y1943100D01*
X1283970Y1978660D02*
X1319530Y1943100D01*
X949923Y1978660D02*
X1283970D01*
X916940Y1945677D02*
X949923Y1978660D01*
X916940Y1628140D02*
Y1945677D01*
X861060Y1572260D02*
X916940Y1628140D01*
X838200Y1572260D02*
X861060D01*
X1193800Y1948180D02*
X1234440Y1907540D01*
X971550Y1948180D02*
X1193800D01*
X957580Y1934210D02*
X971550Y1948180D01*
X957580Y1390650D02*
Y1934210D01*
X1234440Y1805940D02*
X1286547D01*
X1304290Y1823683D01*
Y1936787D01*
X1277657Y1963420D02*
X1304290Y1936787D01*
X961390Y1963420D02*
X1277657D01*
X935990Y1938020D02*
X961390Y1963420D01*
X935990Y1554480D02*
Y1938020D01*
X902970Y1521460D02*
X935990Y1554480D01*
X838200Y1521460D02*
X902970D01*
X1220470Y1755140D02*
X1234440D01*
X1220470D02*
Y1758950D01*
X1102360Y1877060D02*
X1220470Y1758950D01*
X1061720Y1877060D02*
X1102360D01*
X1061720Y1851660D02*
X1098550D01*
X1220470Y1729740D01*
X1234440D01*
X1061720Y1826260D02*
X1092200D01*
X1214120Y1704340D01*
X1234440D01*
X1214120Y1678940D02*
X1234440D01*
X1214120D02*
X1220470D01*
X1092200Y1800860D02*
X1214120Y1678940D01*
X1061720Y1800860D02*
X1092200D01*
X1061720Y1775460D02*
X1066800Y1770380D01*
X1099820D01*
X1216660Y1653540D01*
X1234440D01*
X1216660Y1628140D02*
X1234440D01*
X1216660D02*
X1220470D01*
X1094740Y1750060D02*
X1216660Y1628140D01*
X1061720Y1750060D02*
X1094740D01*
X1061720Y1724660D02*
X1092200D01*
X1214120Y1602740D01*
X1234440D01*
X1211580Y1577340D02*
X1234440D01*
X1211580D02*
X1220470D01*
X1089660Y1699260D02*
X1211580Y1577340D01*
X1061720Y1699260D02*
X1089660D01*
X1068070Y1502410D02*
Y1534160D01*
Y1502410D02*
X1123950Y1446530D01*
X1027430Y1390650D02*
X1061720Y1424940D01*
X1054100Y1432560D02*
Y1446530D01*
Y1432560D02*
X1061720Y1424940D01*
X1234440D01*
X1306830Y1551940D02*
X1333500D01*
X1347470Y1565910D01*
X1061720Y1902460D02*
X1151890D01*
X702310Y1781810D02*
Y1877060D01*
X754380Y1747520D02*
Y1868170D01*
Y1747520D02*
X806450Y1695450D01*
X754380Y1868170D02*
X778510Y1892300D01*
Y1902460D01*
X702310Y1781810D02*
X732790Y1751330D01*
X702310Y1877060D02*
X727710Y1902460D01*
X731520Y1370330D02*
X781050Y1419860D01*
X681990Y1381760D02*
Y1416050D01*
X670560Y1419860D02*
X681990Y1431290D01*
X670560Y1419860D02*
X678180Y1412240D01*
X693420Y1370330D02*
X731520D01*
X681990Y1381760D02*
X693420Y1370330D01*
X758190Y1431290D02*
Y1445260D01*
X717550Y1751330D02*
X732790D01*
X834390Y1695450D02*
X838200Y1699260D01*
X806450Y1695450D02*
X834390D01*
X595630Y1644650D02*
X599440Y1648460D01*
X838200D01*
X834390Y1670050D02*
X838200Y1673860D01*
X595630Y1670050D02*
X834390D01*
X754380Y1747520D02*
X758190Y1751330D01*
X670560Y1498600D02*
X681990Y1487170D01*
X990600Y1699260D02*
X1061720D01*
X990600Y1724660D02*
X1061720D01*
X990600Y1750060D02*
X1061720D01*
X990600Y1775460D02*
X1061720D01*
X990600Y1800860D02*
X1061720D01*
X990600Y1826260D02*
X1061720D01*
X990600Y1851660D02*
X1061720D01*
X990600Y1877060D02*
X1061720D01*
X990600Y1902460D02*
X1061720D01*
X687070Y1720850D02*
X717550Y1751330D01*
X566420Y1623060D02*
X595630Y1593850D01*
X566420Y1623060D02*
Y1681480D01*
X580390Y1695450D01*
X595630Y1593850D02*
X618490D01*
X670560Y1541780D01*
Y1498600D02*
Y1541780D01*
X681990Y1431290D02*
Y1487170D01*
X781050Y1419860D02*
X838200D01*
X742950Y1416050D02*
X758190Y1431290D01*
X707390Y1416050D02*
X742950D01*
X758190Y1445260D02*
X838200D01*
X828770Y1480090D02*
X838200Y1470660D01*
X758190Y1480090D02*
X828770D01*
X751110Y1487170D02*
X758190Y1480090D01*
X707390Y1487170D02*
X751110D01*
X1027430Y1389380D02*
Y1390650D01*
X957580D02*
X1026160D01*
X1027430Y1389380D01*
X957580Y1362710D02*
Y1390650D01*
X949960Y1355090D02*
X957580Y1362710D01*
X896620Y1355090D02*
X949960D01*
X838200Y1413510D02*
X896620Y1355090D01*
X838200Y1413510D02*
Y1419860D01*
X1073150Y1400810D02*
X1181100D01*
X1007110Y1334770D02*
X1073150Y1400810D01*
X962660Y1334770D02*
X1007110D01*
X924560Y1296670D02*
X962660Y1334770D01*
X924560Y1379220D02*
Y1430020D01*
X858520Y1496060D02*
X924560Y1430020D01*
X838200Y1496060D02*
X858520D01*
X1181100Y1483360D02*
Y1511300D01*
X1221740Y1551940D01*
X1234440D01*
D11*
X1404620Y1573530D02*
Y1610360D01*
X1353820Y1522730D02*
X1404620Y1573530D01*
X1306830Y1522730D02*
X1353820D01*
X1281430Y1559560D02*
X1304290Y1582420D01*
X1281430Y1492250D02*
Y1559560D01*
X1304290Y1582420D02*
X1306830D01*
X1264920Y1475740D02*
X1281430Y1492250D01*
X1234440Y1475740D02*
X1264920D01*
X574040Y1870710D02*
X599440Y1845310D01*
X574040Y1870710D02*
Y1906270D01*
X604520Y1936750D01*
X701040Y1944370D02*
X751840Y1995170D01*
Y2002790D01*
X1187450Y1899920D02*
X1205230Y1882140D01*
X1187450Y1899920D02*
Y1906270D01*
X1151890Y1902460D02*
X1183640D01*
X924560Y2033270D02*
X1187450D01*
X894080Y2002790D02*
X924560Y2033270D01*
X777240Y2002790D02*
X894080D01*
X727710Y1902460D02*
X777240Y1951990D01*
Y2002790D01*
X1219200Y1450340D02*
X1234440D01*
X1219200D02*
X1220470D01*
X990600Y1572260D02*
X1004570D01*
X1028700Y1548130D01*
X1068070D01*
X1266190Y1450340D02*
X1306830Y1490980D01*
X1234440Y1450340D02*
X1266190D01*
X1306830Y1490980D02*
Y1522730D01*
X1253490Y1856740D02*
X1270000Y1840230D01*
X1280160D01*
X1234440Y1856740D02*
X1253490D01*
X1362710Y1581150D02*
Y1840230D01*
X1347470Y1565910D02*
X1362710Y1581150D01*
X1150620Y1450340D02*
X1219200D01*
X1150620D02*
Y1518920D01*
X1108710Y1560830D02*
X1150620Y1518920D01*
X1068070Y1560830D02*
X1108710D01*
D12*
X528320Y1082040D02*
X543560Y1097280D01*
X528320Y864870D02*
Y1082040D01*
Y864870D02*
X532130Y861060D01*
X557530D01*
X562610Y855980D01*
X679450Y908050D02*
X1144270D01*
X674370D02*
X679450D01*
X595630Y932180D02*
X619760Y908050D01*
X679450D01*
X562610Y932180D02*
X595630D01*
X561340Y1054100D02*
X562610Y1052830D01*
Y932180D02*
Y1052830D01*
X610870Y887730D02*
X707390D01*
X562610Y906780D02*
X591820D01*
X610870Y887730D01*
X707390D02*
X732790Y862330D01*
X562610Y881380D02*
X586740D01*
X605790Y862330D01*
X659130Y830580D02*
X709930Y779780D01*
X562610Y830580D02*
X659130D01*
X562610D02*
Y855980D01*
X844550Y689610D02*
X876300Y657860D01*
X844550Y689610D02*
Y716280D01*
X953770Y742950D02*
Y769620D01*
X927100Y716280D02*
X953770Y742950D01*
X806450Y678180D02*
X861060Y623570D01*
X806450Y678180D02*
Y779780D01*
X953770Y637540D02*
Y657860D01*
X939800Y623570D02*
X953770Y637540D01*
X861060Y623570D02*
X939800D01*
X1159510Y1055370D02*
X1256030D01*
X1118870Y1096010D02*
X1159510Y1055370D01*
X1104900Y1096010D02*
X1118870D01*
X1256030Y1055370D02*
X1277620Y1033780D01*
X1391920D02*
X1414780Y1056640D01*
Y1061720D01*
Y982980D02*
Y1056640D01*
X1360170Y1033780D02*
X1391920D01*
X1225550Y1014730D02*
X1323340Y916940D01*
X1189990Y1014730D02*
X1225550D01*
X1323340Y967740D02*
Y1052830D01*
X1286510Y1089660D02*
X1323340Y1052830D01*
X1235710Y1089660D02*
X1286510D01*
X1389380Y1061720D02*
Y1062990D01*
X1362710Y1089660D02*
X1389380Y1062990D01*
X1211580Y1113790D02*
Y1148080D01*
Y1113790D02*
X1235710Y1089660D01*
X1362710Y1088390D02*
Y1089660D01*
X1008380Y1206500D02*
X1010920Y1203960D01*
Y1160780D02*
Y1203960D01*
X896620Y1120140D02*
X928370Y1151890D01*
Y1160780D01*
X953770Y657860D02*
X977900D01*
X952500D02*
X953770D01*
X904240Y779780D02*
X914400Y789940D01*
X876300Y779780D02*
X904240D01*
X859790Y844550D02*
Y862330D01*
Y844550D02*
X868680Y835660D01*
X910590D01*
X927100Y819150D01*
Y789940D02*
Y819150D01*
X1189990Y781050D02*
Y811530D01*
X1178560Y769620D02*
X1189990Y781050D01*
X953770Y769620D02*
X1178560D01*
X939800Y783590D02*
X953770Y769620D01*
X939800Y783590D02*
Y789940D01*
X709930Y779780D02*
X806450D01*
X1144270Y908050D02*
X1189990Y862330D01*
X838200Y750570D02*
Y816610D01*
X758190D02*
X838200D01*
X758190D02*
Y862330D01*
X838200Y750570D02*
X896620Y692150D01*
Y662940D02*
X901700Y657860D01*
X896620Y662940D02*
Y692150D01*
X855240Y760200D02*
X927100Y688340D01*
X855240Y760200D02*
Y827510D01*
X927100Y657860D02*
Y688340D01*
X850900Y831850D02*
X855240Y827510D01*
X783590Y831850D02*
X850900D01*
X783590D02*
Y862330D01*
X561340Y1018540D02*
Y1054100D01*
X556260Y1181100D02*
X561340D01*
X543560Y1168400D02*
X556260Y1181100D01*
X543560Y1097280D02*
Y1168400D01*
Y1097280D02*
X561340Y1079500D01*
Y1181100D02*
X652780D01*
X683260Y1150620D01*
Y1038860D02*
Y1150620D01*
Y1038860D02*
X707390Y1014730D01*
X935990Y994410D02*
Y1014730D01*
X929640Y988060D02*
X935990Y994410D01*
X685800Y988060D02*
X929640D01*
X632460Y1041400D02*
X685800Y988060D01*
X632460Y1041400D02*
Y1097280D01*
X599440Y1130300D02*
X632460Y1097280D01*
X561340Y1130300D02*
X599440D01*
X561340Y1104900D02*
X593090D01*
X612140Y1085850D01*
Y1038860D02*
Y1085850D01*
Y1038860D02*
X684530Y966470D01*
X933450D01*
X956310Y989330D01*
Y1009650D01*
X961390Y1014730D01*
X1189990Y811530D02*
Y862330D01*
X1164590Y811530D02*
Y862330D01*
X1139190Y811530D02*
Y862330D01*
X1113790Y811530D02*
Y862330D01*
X1062990Y807720D02*
Y821690D01*
X1088390Y811530D02*
Y862330D01*
X1062990Y821690D02*
Y862330D01*
X1037590Y811530D02*
Y862330D01*
X1012190Y812800D02*
X1018540Y806450D01*
X1012190Y812800D02*
Y862330D01*
X986790Y811530D02*
Y862330D01*
X932180Y1206500D02*
X957580Y1231900D01*
X1183640D01*
X1219200Y1196340D01*
Y1155700D02*
Y1196340D01*
X1211580Y1148080D02*
X1219200Y1155700D01*
X1189990Y862330D02*
X1294130D01*
X1323340Y891540D01*
X1414780Y982980D01*
X1209040Y1145540D02*
X1211580Y1148080D01*
X1414780Y1061720D02*
X1419860Y1066800D01*
Y1125220D01*
X1386840Y1117600D02*
X1394460Y1125220D01*
X1318260Y1117600D02*
X1386840D01*
X1287780Y1148080D02*
X1318260Y1117600D01*
X1164590Y1014730D02*
Y1027430D01*
X1177290Y1040130D01*
X1225550D01*
X1323340Y942340D01*
X1134110Y1019810D02*
X1139190Y1014730D01*
X1084580Y1069340D02*
X1131570Y1022350D01*
X1134110Y1019810D01*
X1084580Y1069340D02*
Y1126498D01*
X1069348Y1141730D02*
X1084580Y1126498D01*
X990600Y1141730D02*
X1069348D01*
X982980Y1149350D02*
X990600Y1141730D01*
X982980Y1149350D02*
Y1206500D01*
X1104900Y1096010D02*
Y1134110D01*
X1080770Y1158240D02*
X1104900Y1134110D01*
X1080770Y1158240D02*
Y1187450D01*
X1061720Y1206500D02*
X1080770Y1187450D01*
X1008380Y1206500D02*
X1061720D01*
X919480Y1094740D02*
X920750Y1096010D01*
X919480Y1094740D02*
X929640D01*
X896620D02*
X919480D01*
X920750Y1096010D02*
X1054100D01*
X906780Y1165860D02*
Y1206500D01*
X932180D01*
X1070220Y1126490D02*
X1071681Y1125029D01*
Y1057711D02*
Y1125029D01*
Y1057711D02*
X1113790Y1015602D01*
X981710Y1126490D02*
X1070220D01*
X1113790Y1014730D02*
Y1015602D01*
X957580Y1150620D02*
X981710Y1126490D01*
X957580Y1150620D02*
Y1206500D01*
X929640Y1094740D02*
X965200Y1059180D01*
Y1036320D02*
X986790Y1014730D01*
X965200Y1036320D02*
Y1059180D01*
X795020Y1102360D02*
X838200Y1059180D01*
X795020Y1102360D02*
Y1145540D01*
X767620Y1143540D02*
X769620Y1145540D01*
X767620Y1079500D02*
Y1143540D01*
X758190Y1070070D02*
X767620Y1079500D01*
X758190Y1014730D02*
Y1070070D01*
X708660Y1089660D02*
X718820Y1079500D01*
X732790Y1065530D01*
Y1014730D02*
Y1065530D01*
X708660Y1089660D02*
Y1150620D01*
X683260D02*
Y1177290D01*
X687070Y1181100D01*
X788670D01*
X795020Y1174750D01*
Y1145540D02*
Y1174750D01*
Y1145540D02*
X815340Y1165860D01*
X906780D01*
X605790Y862330D02*
X707390D01*
D13*
X1180444Y1373156D02*
Y1297940D01*
X1142836D01*
X1130300Y1310476D01*
Y1335548D01*
X1142836Y1348084D01*
X1180444D01*
X1205516Y1297940D02*
X1230588D01*
X1218052D01*
Y1348084D01*
X1205516D01*
X1268195Y1297940D02*
X1305803D01*
X1318339Y1310476D01*
X1305803Y1323012D01*
X1280731D01*
X1268195Y1335548D01*
X1280731Y1348084D01*
X1318339D01*
X1151234Y654050D02*
X1101090D01*
X1151234Y704194D01*
Y716730D01*
X1138698Y729266D01*
X1113626D01*
X1101090Y716730D01*
X1176306D02*
X1188842Y729266D01*
X1213913D01*
X1226450Y716730D01*
Y666586D01*
X1213913Y654050D01*
X1188842D01*
X1176306Y666586D01*
Y716730D01*
X1251521Y654050D02*
X1276593D01*
X1264057D01*
Y729266D01*
X1251521Y716730D01*
X1351809Y654050D02*
Y729266D01*
X1314201Y691658D01*
X1364345D01*
D14*
X1277620Y1865630D02*
D03*
X1404620D02*
D03*
X1187450Y2033270D02*
D03*
Y1906270D02*
D03*
X701040Y1944370D02*
D03*
Y2071370D02*
D03*
X806450Y1695450D02*
D03*
X679450D02*
D03*
X1362710Y1840230D02*
D03*
X1280160D02*
D03*
X1181100Y1483360D02*
D03*
Y1400810D02*
D03*
X924560Y1379220D02*
D03*
Y1296670D02*
D03*
X844550Y716280D02*
D03*
X927100D02*
D03*
X1277620Y1033780D02*
D03*
X1360170D02*
D03*
X1010920Y1160780D02*
D03*
X928370D02*
D03*
X1362710Y1089660D02*
D03*
X1235710D02*
D03*
X965200Y1059180D02*
D03*
X838200D02*
D03*
D15*
X1234440Y1907540D02*
D03*
X595630Y1568450D02*
D03*
X1061720Y1902460D02*
D03*
X838200D02*
D03*
X561340Y1206500D02*
D03*
X1189990Y811530D02*
D03*
Y1014730D02*
D03*
D16*
X1234440Y1882140D02*
D03*
Y1856740D02*
D03*
Y1831340D02*
D03*
Y1805940D02*
D03*
Y1780540D02*
D03*
Y1755140D02*
D03*
Y1729740D02*
D03*
Y1704340D02*
D03*
Y1678940D02*
D03*
Y1653540D02*
D03*
Y1628140D02*
D03*
Y1602740D02*
D03*
Y1577340D02*
D03*
Y1551940D02*
D03*
Y1526540D02*
D03*
Y1501140D02*
D03*
Y1475740D02*
D03*
Y1450340D02*
D03*
Y1424940D02*
D03*
X595630Y1593850D02*
D03*
Y1619250D02*
D03*
Y1644650D02*
D03*
Y1670050D02*
D03*
Y1695450D02*
D03*
Y1720850D02*
D03*
X1061720Y1877060D02*
D03*
Y1851660D02*
D03*
Y1826260D02*
D03*
Y1800860D02*
D03*
Y1775460D02*
D03*
Y1750060D02*
D03*
Y1724660D02*
D03*
X990600Y1419860D02*
D03*
Y1445260D02*
D03*
Y1470660D02*
D03*
Y1496060D02*
D03*
Y1521460D02*
D03*
Y1546860D02*
D03*
Y1572260D02*
D03*
Y1597660D02*
D03*
Y1623060D02*
D03*
Y1648460D02*
D03*
Y1673860D02*
D03*
Y1699260D02*
D03*
Y1724660D02*
D03*
Y1750060D02*
D03*
Y1775460D02*
D03*
Y1800860D02*
D03*
Y1826260D02*
D03*
Y1851660D02*
D03*
Y1877060D02*
D03*
Y1902460D02*
D03*
X838200Y1419860D02*
D03*
Y1445260D02*
D03*
Y1470660D02*
D03*
Y1496060D02*
D03*
Y1521460D02*
D03*
Y1546860D02*
D03*
Y1572260D02*
D03*
Y1597660D02*
D03*
Y1623060D02*
D03*
Y1648460D02*
D03*
Y1673860D02*
D03*
Y1699260D02*
D03*
Y1724660D02*
D03*
Y1750060D02*
D03*
Y1775460D02*
D03*
Y1800860D02*
D03*
Y1826260D02*
D03*
Y1851660D02*
D03*
Y1877060D02*
D03*
X561340Y1181100D02*
D03*
Y1155700D02*
D03*
Y1130300D02*
D03*
Y1104900D02*
D03*
Y1079500D02*
D03*
Y1054100D02*
D03*
X1164590Y811530D02*
D03*
X1139190D02*
D03*
X1113790D02*
D03*
X1088390D02*
D03*
X1062990D02*
D03*
X1037590D02*
D03*
X1012190D02*
D03*
X707390Y862330D02*
D03*
X732790D02*
D03*
X758190D02*
D03*
X783590D02*
D03*
X808990D02*
D03*
X834390D02*
D03*
X859790D02*
D03*
X885190D02*
D03*
X910590D02*
D03*
X935990D02*
D03*
X961390D02*
D03*
X986790D02*
D03*
X1012190D02*
D03*
X1037590D02*
D03*
X1062990D02*
D03*
X1088390D02*
D03*
X1113790D02*
D03*
X1139190D02*
D03*
X1164590D02*
D03*
X1189990D02*
D03*
X707390Y1014730D02*
D03*
X732790D02*
D03*
X758190D02*
D03*
X783590D02*
D03*
X808990D02*
D03*
X834390D02*
D03*
X859790D02*
D03*
X885190D02*
D03*
X910590D02*
D03*
X935990D02*
D03*
X961390D02*
D03*
X986790D02*
D03*
X1012190D02*
D03*
X1037590D02*
D03*
X1062990D02*
D03*
X1088390D02*
D03*
X1113790D02*
D03*
X1139190D02*
D03*
X1164590D02*
D03*
D17*
X758190Y1431290D02*
D03*
Y1480090D02*
D03*
X718820Y1079500D02*
D03*
X767620D02*
D03*
D18*
X631190Y2042160D02*
D03*
Y1907540D02*
D03*
X1182370Y1174750D02*
D03*
X1316990D02*
D03*
D19*
X604520Y2012950D02*
D03*
Y1987550D02*
D03*
Y1962150D02*
D03*
Y1936750D02*
D03*
X1306830Y1551940D02*
D03*
Y1522730D02*
D03*
Y1582420D02*
D03*
X1211580Y1148080D02*
D03*
X1236980D02*
D03*
X1262380D02*
D03*
X1287780D02*
D03*
D20*
X650240Y1794510D02*
D03*
Y1819910D02*
D03*
Y1845310D02*
D03*
X599440Y1794510D02*
D03*
Y1819910D02*
D03*
X1445260Y1176020D02*
D03*
X1419860D02*
D03*
X1394460D02*
D03*
X1445260Y1125220D02*
D03*
X1419860D02*
D03*
D21*
X599440Y1845310D02*
D03*
X1394460Y1125220D02*
D03*
D22*
X1068070Y1560830D02*
D03*
Y1535430D02*
D03*
D23*
Y1548130D02*
D03*
D24*
X1123950Y1446530D02*
D03*
X1054100D02*
D03*
X778510Y1902460D02*
D03*
Y1832610D02*
D03*
X727710Y1902460D02*
D03*
Y1832610D02*
D03*
X1054100Y1096010D02*
D03*
Y1165860D02*
D03*
X1104900Y1096010D02*
D03*
Y1165860D02*
D03*
X876300Y779780D02*
D03*
X806450D02*
D03*
D25*
X777240Y2002790D02*
D03*
X707390Y1416050D02*
D03*
X681990Y1487170D02*
D03*
X732790Y1751330D02*
D03*
X1414780Y1061720D02*
D03*
X708660Y1150620D02*
D03*
X795020Y1145540D02*
D03*
X896620Y1120140D02*
D03*
X562610Y932180D02*
D03*
X876300Y657860D02*
D03*
X1008380Y1206500D02*
D03*
X1323340Y891540D02*
D03*
D26*
X751840Y2002790D02*
D03*
X1061720Y1699260D02*
D03*
X681990Y1416050D02*
D03*
X707390Y1487170D02*
D03*
X758190Y1751330D02*
D03*
X1389380Y1061720D02*
D03*
X986790Y811530D02*
D03*
X683260Y1150620D02*
D03*
X769620Y1145540D02*
D03*
X896620Y1094740D02*
D03*
X562610Y906780D02*
D03*
Y881380D02*
D03*
Y855980D02*
D03*
Y830580D02*
D03*
X901700Y657860D02*
D03*
X927100D02*
D03*
X952500D02*
D03*
X977900D02*
D03*
X982980Y1206500D02*
D03*
X957580D02*
D03*
X932180D02*
D03*
X906780D02*
D03*
X1323340Y916940D02*
D03*
Y942340D02*
D03*
Y967740D02*
D03*
Y993140D02*
D03*
D27*
X939800Y789940D02*
D03*
X914400D02*
D03*
D28*
X927100D02*
D03*
M02*
