M71
M48
T1F00S00C0.7000
T2F00S00C0.7112
T3F00S00C0.8500
T4F00S00C0.8890
T5F00S00C0.9000
T6F00S00C1.0000
T7F00S00C1.1000
T8F00S00C2.1000
T9F00S00C3.1000
%
T01
X009779Y0065786
X0056261Y0083058
X0098679Y0081153
X0132334Y0099314
X0090678Y012065
X0106172Y0169926
T02
X0071882Y010795
X0076762
X0075819Y0143129
Y0148009
T03
X0084455Y0071628
X009271
X009652Y0105918
X008382
X0092837Y0116078
X0101092
X0123571Y0108966
X0127762Y0103378
X0136017
X0136271Y0108966
X011811Y0140081
Y0148336
X0092456Y0137922
Y0129667
X0067945Y0169545
X0070104Y0194437
X0080645Y0169545
X0118745Y0190627
X0127762Y0186563
X0128016Y0184023
X0136271
X0140462Y0186563
X0118745Y0203327
X0070104Y0207137
T04
X008763Y0065786
X009017
X009271
X009525
X0056261Y0085598
Y0088138
Y0090678
Y0093218
X0068326Y0115062
X0070866
X0076962Y0114554
X0079502
X0089662Y0112014
Y0109474
X0138938Y0106172
X0141478
X0132334Y0096774
Y0094234
Y0091694
Y0089154
X0100838Y012065
X0098298
X0095758
X0093218
X0070739Y0141605
X0068199
Y0148717
X0070739
X0073279Y0175133
X0075819
X0075184Y0200279
X0077724
T05
X009144Y0078994
X009271
X009398
X0078359Y0086233
X0075819
X0073279
X0070739
Y0101473
X0073279
X0075819
X0078359
X0056134Y010541
Y010795
Y011049
Y011303
Y011557
Y011811
X0080899Y0101473
X0083439
X0085979
X0088519
X0091059
X0093599
X0096139
X0098679
X0101219
X0103759
X0106299
X0108839
X0111379
X0113919
X0116459
X0118999
Y0086233
X0116459
X0113919
X0111379
X0108839
X0106299
X0103759
X0101219
X0098679
X0096139
X0093599
X0091059
X0088519
X0085979
X0083439
X0080899
X0101219Y0081153
X0103759
X0106299
X0108839
X0111379
X0113919
X0116459
X0118999
X0123444Y0142494
Y0145034
Y0147574
Y0150114
Y0152654
Y0155194
Y0157734
X0106807Y0156083
Y0154813
Y0153543
X009906Y0154686
Y0152146
Y0149606
Y0147066
Y0144526
Y0141986
Y0157226
X008382
Y0154686
Y0152146
Y0149606
Y0147066
Y0144526
Y0141986
X0059563Y0156845
X0056134Y012065
X0059563Y0159385
Y0161925
Y0164465
Y0167005
Y0169545
Y0172085
X008382Y0172466
Y0169926
Y0167386
Y0164846
Y0162306
Y0159766
X009906
Y0162306
Y0164846
Y0167386
Y0169926
Y0172466
Y0175006
Y0177546
Y0180086
Y0182626
Y0185166
Y0187706
Y0190246
X0106172
Y0187706
Y0185166
Y0182626
Y0180086
Y0177546
Y0175006
Y0172466
X008382Y0175006
Y0177546
Y0180086
Y0182626
Y0185166
Y0187706
Y0190246
X0123444Y0190754
Y0188214
Y0185674
Y0183134
Y0180594
Y0178054
Y0175514
Y0172974
Y0170434
Y0167894
Y0165354
Y0162814
Y0160274
T06
X0080645Y0077978
X008763
X010541Y0109601
X011049
Y0116586
X010541
X0121158Y0114808
X0123698
X0126238
X0128778
X0130683Y0152273
Y0155194
Y0158242
X0112395Y0144653
X010541
X0077851Y0183261
X0072771
Y0190246
X0077851
X0060452Y0193675
Y0196215
Y0198755
Y0201295
T07
X0139446Y0112522
X0141986
X0144526
Y0117602
X0141986
X0139446
X0065024Y0179451
Y0181991
Y0184531
X0059944
Y0181991
Y0179451
T08
X0118237Y0117475
X0131699
T09
X0063119Y0190754
Y0204216
M30
