%FSLAX44Y44*%
%MOMM*%
G71*
G01*
G75*
%ADD10C,1.2700*%
%ADD11C,1.0160*%
%ADD12C,0.7620*%
%ADD13C,1.2540*%
%ADD14C,1.4000*%
%ADD15R,1.5000X1.5000*%
%ADD16C,1.5000*%
%ADD17C,1.2700*%
%ADD18C,4.6748*%
%ADD19C,2.0000*%
%ADD20C,1.8500*%
%ADD21R,1.8500X1.8500*%
%ADD22O,2.0000X1.0000*%
%ADD23O,2.0000X1.0000*%
%ADD24C,1.7000*%
%ADD25R,1.5748X1.5748*%
%ADD26C,1.5748*%
%ADD27O,1.0000X2.0000*%
%ADD28O,1.0000X2.0000*%
%ADD29C,0.2540*%
%ADD30C,0.5080*%
%ADD31C,0.1693*%
D31*
X1273370Y1865630D02*
X1281870D01*
X1277620Y1861380D02*
Y1869880D01*
X1400370Y1865630D02*
X1408870D01*
X1404620Y1861380D02*
Y1869880D01*
X1183200Y2033270D02*
X1191700D01*
X1187450Y2029020D02*
Y2037520D01*
X1183200Y1906270D02*
X1191700D01*
X1187450Y1902020D02*
Y1910520D01*
X1229940Y1907540D02*
X1238940D01*
X1234440Y1903040D02*
Y1912040D01*
X1229940Y1882140D02*
X1238940D01*
X1234440Y1877640D02*
Y1886640D01*
X1229940Y1856740D02*
X1238940D01*
X1234440Y1852240D02*
Y1861240D01*
X1229940Y1831340D02*
X1238940D01*
X1234440Y1826840D02*
Y1835840D01*
X1229940Y1805940D02*
X1238940D01*
X1234440Y1801440D02*
Y1810440D01*
X1229940Y1780540D02*
X1238940D01*
X1234440Y1776040D02*
Y1785040D01*
X1229940Y1755140D02*
X1238940D01*
X1234440Y1750640D02*
Y1759640D01*
X1229940Y1729740D02*
X1238940D01*
X1234440Y1725240D02*
Y1734240D01*
X1229940Y1704340D02*
X1238940D01*
X1234440Y1699840D02*
Y1708840D01*
X1229940Y1678940D02*
X1238940D01*
X1234440Y1674440D02*
Y1683440D01*
X1229940Y1653540D02*
X1238940D01*
X1234440Y1649040D02*
Y1658040D01*
X1229940Y1628140D02*
X1238940D01*
X1234440Y1623640D02*
Y1632640D01*
X1229940Y1602740D02*
X1238940D01*
X1234440Y1598240D02*
Y1607240D01*
X1229940Y1577340D02*
X1238940D01*
X1234440Y1572840D02*
Y1581840D01*
X1229940Y1551940D02*
X1238940D01*
X1234440Y1547440D02*
Y1556440D01*
X1229940Y1526540D02*
X1238940D01*
X1234440Y1522040D02*
Y1531040D01*
X1229940Y1501140D02*
X1238940D01*
X1234440Y1496640D02*
Y1505640D01*
X1229940Y1475740D02*
X1238940D01*
X1234440Y1471240D02*
Y1480240D01*
X1229940Y1450340D02*
X1238940D01*
X1234440Y1445840D02*
Y1454840D01*
X1229940Y1424940D02*
X1238940D01*
X1234440Y1420440D02*
Y1429440D01*
X754634Y1431290D02*
X761746D01*
X758190Y1427734D02*
Y1434846D01*
X754634Y1480090D02*
X761746D01*
X758190Y1476534D02*
Y1483646D01*
X615690Y2042160D02*
X646690D01*
X631190Y2026660D02*
Y2057660D01*
X615690Y1907540D02*
X646690D01*
X631190Y1892040D02*
Y1923040D01*
X599520Y2012950D02*
X609520D01*
X604520Y2007950D02*
Y2017950D01*
X599520Y1987550D02*
X609520D01*
X604520Y1982550D02*
Y1992550D01*
X599520Y1962150D02*
X609520D01*
X604520Y1957150D02*
Y1967150D01*
X599520Y1936750D02*
X609520D01*
X604520Y1931750D02*
Y1941750D01*
X644740Y1794510D02*
X655740D01*
X650240Y1789010D02*
Y1800010D01*
X644740Y1819910D02*
X655740D01*
X650240Y1814410D02*
Y1825410D01*
X644740Y1845310D02*
X655740D01*
X650240Y1839810D02*
Y1850810D01*
X593940Y1794510D02*
X604940D01*
X599440Y1789010D02*
Y1800010D01*
X593940Y1819910D02*
X604940D01*
X599440Y1814410D02*
Y1825410D01*
X593940Y1845310D02*
X604940D01*
X599440Y1839810D02*
Y1850810D01*
X696790Y1944370D02*
X705290D01*
X701040Y1940120D02*
Y1948620D01*
X696790Y2071370D02*
X705290D01*
X701040Y2067120D02*
Y2075620D01*
X802200Y1695450D02*
X810700D01*
X806450Y1691200D02*
Y1699700D01*
X675200Y1695450D02*
X683700D01*
X679450Y1691200D02*
Y1699700D01*
X1063570Y1560830D02*
X1072570D01*
X1068070Y1556330D02*
Y1565330D01*
X1063570Y1548130D02*
X1072570D01*
X1068070Y1543630D02*
Y1552630D01*
X1063570Y1535430D02*
X1072570D01*
X1068070Y1530930D02*
Y1539930D01*
X591130Y1568450D02*
X600130D01*
X595630Y1563950D02*
Y1572950D01*
X591130Y1593850D02*
X600130D01*
X595630Y1589350D02*
Y1598350D01*
X591130Y1619250D02*
X600130D01*
X595630Y1614750D02*
Y1623750D01*
X591130Y1644650D02*
X600130D01*
X595630Y1640150D02*
Y1649150D01*
X591130Y1670050D02*
X600130D01*
X595630Y1665550D02*
Y1674550D01*
X591130Y1695450D02*
X600130D01*
X595630Y1690950D02*
Y1699950D01*
X591130Y1720850D02*
X600130D01*
X595630Y1716350D02*
Y1725350D01*
X1118950Y1446530D02*
X1128950D01*
X1123950Y1441530D02*
Y1451530D01*
X1049100Y1446530D02*
X1059100D01*
X1054100Y1441530D02*
Y1451530D01*
X772795Y2002790D02*
X781685D01*
X777240Y1998345D02*
Y2007235D01*
X747395Y2002790D02*
X756285D01*
X751840Y1998345D02*
Y2007235D01*
X1301830Y1551940D02*
X1311830D01*
X1306830Y1546940D02*
Y1556940D01*
X1301830Y1522730D02*
X1311830D01*
X1306830Y1517730D02*
Y1527730D01*
X1301830Y1582420D02*
X1311830D01*
X1306830Y1577420D02*
Y1587420D01*
X1058220Y1699260D02*
X1065220D01*
X1061720Y1695760D02*
Y1702760D01*
X1057220Y1902460D02*
X1066220D01*
X1061720Y1897960D02*
Y1906960D01*
X1057220Y1877060D02*
X1066220D01*
X1061720Y1872560D02*
Y1881560D01*
X1057220Y1851660D02*
X1066220D01*
X1061720Y1847160D02*
Y1856160D01*
X1057220Y1826260D02*
X1066220D01*
X1061720Y1821760D02*
Y1830760D01*
X1057220Y1800860D02*
X1066220D01*
X1061720Y1796360D02*
Y1805360D01*
X1057220Y1775460D02*
X1066220D01*
X1061720Y1770960D02*
Y1779960D01*
X1057220Y1750060D02*
X1066220D01*
X1061720Y1745560D02*
Y1754560D01*
X1057220Y1724660D02*
X1066220D01*
X1061720Y1720160D02*
Y1729160D01*
X677545Y1416050D02*
X686435D01*
X681990Y1411605D02*
Y1420495D01*
X702945Y1416050D02*
X711835D01*
X707390Y1411605D02*
Y1420495D01*
X702945Y1487170D02*
X711835D01*
X707390Y1482725D02*
Y1491615D01*
X677545Y1487170D02*
X686435D01*
X681990Y1482725D02*
Y1491615D01*
X753745Y1751330D02*
X762635D01*
X758190Y1746885D02*
Y1755775D01*
X728345Y1751330D02*
X737235D01*
X732790Y1746885D02*
Y1755775D01*
X773510Y1902460D02*
X783510D01*
X778510Y1897460D02*
Y1907460D01*
X773510Y1832610D02*
X783510D01*
X778510Y1827610D02*
Y1837610D01*
X722710Y1902460D02*
X732710D01*
X727710Y1897460D02*
Y1907460D01*
X722710Y1832610D02*
X732710D01*
X727710Y1827610D02*
Y1837610D01*
X986100Y1419860D02*
X995100D01*
X990600Y1415360D02*
Y1424360D01*
X986100Y1445260D02*
X995100D01*
X990600Y1440760D02*
Y1449760D01*
X986100Y1470660D02*
X995100D01*
X990600Y1466160D02*
Y1475160D01*
X986100Y1496060D02*
X995100D01*
X990600Y1491560D02*
Y1500560D01*
X986100Y1521460D02*
X995100D01*
X990600Y1516960D02*
Y1525960D01*
X986100Y1546860D02*
X995100D01*
X990600Y1542360D02*
Y1551360D01*
X986100Y1572260D02*
X995100D01*
X990600Y1567760D02*
Y1576760D01*
X986100Y1597660D02*
X995100D01*
X990600Y1593160D02*
Y1602160D01*
X986100Y1623060D02*
X995100D01*
X990600Y1618560D02*
Y1627560D01*
X986100Y1648460D02*
X995100D01*
X990600Y1643960D02*
Y1652960D01*
X986100Y1673860D02*
X995100D01*
X990600Y1669360D02*
Y1678360D01*
X986100Y1699260D02*
X995100D01*
X990600Y1694760D02*
Y1703760D01*
X986100Y1724660D02*
X995100D01*
X990600Y1720160D02*
Y1729160D01*
X986100Y1750060D02*
X995100D01*
X990600Y1745560D02*
Y1754560D01*
X986100Y1775460D02*
X995100D01*
X990600Y1770960D02*
Y1779960D01*
X986100Y1800860D02*
X995100D01*
X990600Y1796360D02*
Y1805360D01*
X986100Y1826260D02*
X995100D01*
X990600Y1821760D02*
Y1830760D01*
X986100Y1851660D02*
X995100D01*
X990600Y1847160D02*
Y1856160D01*
X986100Y1877060D02*
X995100D01*
X990600Y1872560D02*
Y1881560D01*
X986100Y1902460D02*
X995100D01*
X990600Y1897960D02*
Y1906960D01*
X833700Y1419860D02*
X842700D01*
X838200Y1415360D02*
Y1424360D01*
X833700Y1445260D02*
X842700D01*
X838200Y1440760D02*
Y1449760D01*
X833700Y1470660D02*
X842700D01*
X838200Y1466160D02*
Y1475160D01*
X833700Y1496060D02*
X842700D01*
X838200Y1491560D02*
Y1500560D01*
X833700Y1521460D02*
X842700D01*
X838200Y1516960D02*
Y1525960D01*
X833700Y1546860D02*
X842700D01*
X838200Y1542360D02*
Y1551360D01*
X833700Y1572260D02*
X842700D01*
X838200Y1567760D02*
Y1576760D01*
X833700Y1597660D02*
X842700D01*
X838200Y1593160D02*
Y1602160D01*
X833700Y1623060D02*
X842700D01*
X838200Y1618560D02*
Y1627560D01*
X833700Y1648460D02*
X842700D01*
X838200Y1643960D02*
Y1652960D01*
X833700Y1673860D02*
X842700D01*
X838200Y1669360D02*
Y1678360D01*
X833700Y1699260D02*
X842700D01*
X838200Y1694760D02*
Y1703760D01*
X833700Y1724660D02*
X842700D01*
X838200Y1720160D02*
Y1729160D01*
X833700Y1750060D02*
X842700D01*
X838200Y1745560D02*
Y1754560D01*
X833700Y1775460D02*
X842700D01*
X838200Y1770960D02*
Y1779960D01*
X833700Y1800860D02*
X842700D01*
X838200Y1796360D02*
Y1805360D01*
X833700Y1826260D02*
X842700D01*
X838200Y1821760D02*
Y1830760D01*
X833700Y1851660D02*
X842700D01*
X838200Y1847160D02*
Y1856160D01*
X833700Y1877060D02*
X842700D01*
X838200Y1872560D02*
Y1881560D01*
X833700Y1902460D02*
X842700D01*
X838200Y1897960D02*
Y1906960D01*
X1358460Y1840230D02*
X1366960D01*
X1362710Y1835980D02*
Y1844480D01*
X1275910Y1840230D02*
X1284410D01*
X1280160Y1835980D02*
Y1844480D01*
X1176850Y1483360D02*
X1185350D01*
X1181100Y1479110D02*
Y1487610D01*
X1176850Y1400810D02*
X1185350D01*
X1181100Y1396560D02*
Y1405060D01*
X920310Y1379220D02*
X928810D01*
X924560Y1374970D02*
Y1383470D01*
X920310Y1296670D02*
X928810D01*
X924560Y1292420D02*
Y1300920D01*
X840300Y716280D02*
X848800D01*
X844550Y712030D02*
Y720530D01*
X922850Y716280D02*
X931350D01*
X927100Y712030D02*
Y720530D01*
X1273370Y1033780D02*
X1281870D01*
X1277620Y1029530D02*
Y1038030D01*
X1355920Y1033780D02*
X1364420D01*
X1360170Y1029530D02*
Y1038030D01*
X1006670Y1160780D02*
X1015170D01*
X1010920Y1156530D02*
Y1165030D01*
X924120Y1160780D02*
X932620D01*
X928370Y1156530D02*
Y1165030D01*
X1049100Y1096010D02*
X1059100D01*
X1054100Y1091010D02*
Y1101010D01*
X1049100Y1165860D02*
X1059100D01*
X1054100Y1160860D02*
Y1170860D01*
X1099900Y1096010D02*
X1109900D01*
X1104900Y1091010D02*
Y1101010D01*
X1099900Y1165860D02*
X1109900D01*
X1104900Y1160860D02*
Y1170860D01*
X715264Y1079500D02*
X722376D01*
X718820Y1075944D02*
Y1083056D01*
X764064Y1079500D02*
X771176D01*
X767620Y1075944D02*
Y1083056D01*
X1171870Y1174750D02*
X1192870D01*
X1182370Y1164250D02*
Y1185250D01*
X1306490Y1174750D02*
X1327490D01*
X1316990Y1164250D02*
Y1185250D01*
X1206580Y1148080D02*
X1216580D01*
X1211580Y1143080D02*
Y1153080D01*
X1231980Y1148080D02*
X1241980D01*
X1236980Y1143080D02*
Y1153080D01*
X1257380Y1148080D02*
X1267380D01*
X1262380Y1143080D02*
Y1153080D01*
X1282780Y1148080D02*
X1292780D01*
X1287780Y1143080D02*
Y1153080D01*
X1439760Y1176020D02*
X1450760D01*
X1445260Y1170520D02*
Y1181520D01*
X1414360Y1176020D02*
X1425360D01*
X1419860Y1170520D02*
Y1181520D01*
X1388960Y1176020D02*
X1399960D01*
X1394460Y1170520D02*
Y1181520D01*
X1439760Y1125220D02*
X1450760D01*
X1445260Y1119720D02*
Y1130720D01*
X1414360Y1125220D02*
X1425360D01*
X1419860Y1119720D02*
Y1130720D01*
X1388960Y1125220D02*
X1399960D01*
X1394460Y1119720D02*
Y1130720D01*
X1358460Y1089660D02*
X1366960D01*
X1362710Y1085410D02*
Y1093910D01*
X1231460Y1089660D02*
X1239960D01*
X1235710Y1085410D02*
Y1093910D01*
X960950Y1059180D02*
X969450D01*
X965200Y1054930D02*
Y1063430D01*
X833950Y1059180D02*
X842450D01*
X838200Y1054930D02*
Y1063430D01*
X935300Y789940D02*
X944300D01*
X939800Y785440D02*
Y794440D01*
X922600Y789940D02*
X931600D01*
X927100Y785440D02*
Y794440D01*
X909900Y789940D02*
X918900D01*
X914400Y785440D02*
Y794440D01*
X556840Y1206500D02*
X565840D01*
X561340Y1202000D02*
Y1211000D01*
X556840Y1181100D02*
X565840D01*
X561340Y1176600D02*
Y1185600D01*
X556840Y1155700D02*
X565840D01*
X561340Y1151200D02*
Y1160200D01*
X556840Y1130300D02*
X565840D01*
X561340Y1125800D02*
Y1134800D01*
X556840Y1104900D02*
X565840D01*
X561340Y1100400D02*
Y1109400D01*
X556840Y1079500D02*
X565840D01*
X561340Y1075000D02*
Y1084000D01*
X556840Y1054100D02*
X565840D01*
X561340Y1049600D02*
Y1058600D01*
X871300Y779780D02*
X881300D01*
X876300Y774780D02*
Y784780D01*
X801450Y779780D02*
X811450D01*
X806450Y774780D02*
Y784780D01*
X1410335Y1061720D02*
X1419225D01*
X1414780Y1057275D02*
Y1066165D01*
X1384935Y1061720D02*
X1393825D01*
X1389380Y1057275D02*
Y1066165D01*
X983290Y811530D02*
X990290D01*
X986790Y808030D02*
Y815030D01*
X1185490Y811530D02*
X1194490D01*
X1189990Y807030D02*
Y816030D01*
X1160090Y811530D02*
X1169090D01*
X1164590Y807030D02*
Y816030D01*
X1134690Y811530D02*
X1143690D01*
X1139190Y807030D02*
Y816030D01*
X1109290Y811530D02*
X1118290D01*
X1113790Y807030D02*
Y816030D01*
X1083890Y811530D02*
X1092890D01*
X1088390Y807030D02*
Y816030D01*
X1058490Y811530D02*
X1067490D01*
X1062990Y807030D02*
Y816030D01*
X1033090Y811530D02*
X1042090D01*
X1037590Y807030D02*
Y816030D01*
X1007690Y811530D02*
X1016690D01*
X1012190Y807030D02*
Y816030D01*
X678815Y1150620D02*
X687705D01*
X683260Y1146175D02*
Y1155065D01*
X704215Y1150620D02*
X713105D01*
X708660Y1146175D02*
Y1155065D01*
X765175Y1145540D02*
X774065D01*
X769620Y1141095D02*
Y1149985D01*
X790575Y1145540D02*
X799465D01*
X795020Y1141095D02*
Y1149985D01*
X892175Y1094740D02*
X901065D01*
X896620Y1090295D02*
Y1099185D01*
X892175Y1120140D02*
X901065D01*
X896620Y1115695D02*
Y1124585D01*
X558165Y932180D02*
X567055D01*
X562610Y927735D02*
Y936625D01*
X558165Y906780D02*
X567055D01*
X562610Y902335D02*
Y911225D01*
X558165Y881380D02*
X567055D01*
X562610Y876935D02*
Y885825D01*
X558165Y855980D02*
X567055D01*
X562610Y851535D02*
Y860425D01*
X559110Y830580D02*
X566110D01*
X562610Y827080D02*
Y834080D01*
X871855Y657860D02*
X880745D01*
X876300Y653415D02*
Y662305D01*
X897255Y657860D02*
X906145D01*
X901700Y653415D02*
Y662305D01*
X922655Y657860D02*
X931545D01*
X927100Y653415D02*
Y662305D01*
X948055Y657860D02*
X956945D01*
X952500Y653415D02*
Y662305D01*
X974400Y657860D02*
X981400D01*
X977900Y654360D02*
Y661360D01*
X1003935Y1206500D02*
X1012825D01*
X1008380Y1202055D02*
Y1210945D01*
X978535Y1206500D02*
X987425D01*
X982980Y1202055D02*
Y1210945D01*
X953135Y1206500D02*
X962025D01*
X957580Y1202055D02*
Y1210945D01*
X927735Y1206500D02*
X936625D01*
X932180Y1202055D02*
Y1210945D01*
X903280Y1206500D02*
X910280D01*
X906780Y1203000D02*
Y1210000D01*
X1318895Y891540D02*
X1327785D01*
X1323340Y887095D02*
Y895985D01*
X1318895Y916940D02*
X1327785D01*
X1323340Y912495D02*
Y921385D01*
X1318895Y942340D02*
X1327785D01*
X1323340Y937895D02*
Y946785D01*
X1318895Y967740D02*
X1327785D01*
X1323340Y963295D02*
Y972185D01*
X1319840Y993140D02*
X1326840D01*
X1323340Y989640D02*
Y996640D01*
X702890Y862330D02*
X711890D01*
X707390Y857830D02*
Y866830D01*
X728290Y862330D02*
X737290D01*
X732790Y857830D02*
Y866830D01*
X753690Y862330D02*
X762690D01*
X758190Y857830D02*
Y866830D01*
X779090Y862330D02*
X788090D01*
X783590Y857830D02*
Y866830D01*
X804490Y862330D02*
X813490D01*
X808990Y857830D02*
Y866830D01*
X829890Y862330D02*
X838890D01*
X834390Y857830D02*
Y866830D01*
X855290Y862330D02*
X864290D01*
X859790Y857830D02*
Y866830D01*
X880690Y862330D02*
X889690D01*
X885190Y857830D02*
Y866830D01*
X906090Y862330D02*
X915090D01*
X910590Y857830D02*
Y866830D01*
X931490Y862330D02*
X940490D01*
X935990Y857830D02*
Y866830D01*
X956890Y862330D02*
X965890D01*
X961390Y857830D02*
Y866830D01*
X982290Y862330D02*
X991290D01*
X986790Y857830D02*
Y866830D01*
X1007690Y862330D02*
X1016690D01*
X1012190Y857830D02*
Y866830D01*
X1033090Y862330D02*
X1042090D01*
X1037590Y857830D02*
Y866830D01*
X1058490Y862330D02*
X1067490D01*
X1062990Y857830D02*
Y866830D01*
X1083890Y862330D02*
X1092890D01*
X1088390Y857830D02*
Y866830D01*
X1109290Y862330D02*
X1118290D01*
X1113790Y857830D02*
Y866830D01*
X1134690Y862330D02*
X1143690D01*
X1139190Y857830D02*
Y866830D01*
X1160090Y862330D02*
X1169090D01*
X1164590Y857830D02*
Y866830D01*
X1185490Y862330D02*
X1194490D01*
X1189990Y857830D02*
Y866830D01*
X702890Y1014730D02*
X711890D01*
X707390Y1010230D02*
Y1019230D01*
X728290Y1014730D02*
X737290D01*
X732790Y1010230D02*
Y1019230D01*
X753690Y1014730D02*
X762690D01*
X758190Y1010230D02*
Y1019230D01*
X779090Y1014730D02*
X788090D01*
X783590Y1010230D02*
Y1019230D01*
X804490Y1014730D02*
X813490D01*
X808990Y1010230D02*
Y1019230D01*
X829890Y1014730D02*
X838890D01*
X834390Y1010230D02*
Y1019230D01*
X855290Y1014730D02*
X864290D01*
X859790Y1010230D02*
Y1019230D01*
X880690Y1014730D02*
X889690D01*
X885190Y1010230D02*
Y1019230D01*
X906090Y1014730D02*
X915090D01*
X910590Y1010230D02*
Y1019230D01*
X931490Y1014730D02*
X940490D01*
X935990Y1010230D02*
Y1019230D01*
X956890Y1014730D02*
X965890D01*
X961390Y1010230D02*
Y1019230D01*
X982290Y1014730D02*
X991290D01*
X986790Y1010230D02*
Y1019230D01*
X1007690Y1014730D02*
X1016690D01*
X1012190Y1010230D02*
Y1019230D01*
X1033090Y1014730D02*
X1042090D01*
X1037590Y1010230D02*
Y1019230D01*
X1058490Y1014730D02*
X1067490D01*
X1062990Y1010230D02*
Y1019230D01*
X1083890Y1014730D02*
X1092890D01*
X1088390Y1010230D02*
Y1019230D01*
X1109290Y1014730D02*
X1118290D01*
X1113790Y1010230D02*
Y1019230D01*
X1134690Y1014730D02*
X1143690D01*
X1139190Y1010230D02*
Y1019230D01*
X1160090Y1014730D02*
X1169090D01*
X1164590Y1010230D02*
Y1019230D01*
X1185490Y1014730D02*
X1194490D01*
X1189990Y1010230D02*
Y1019230D01*
M02*
