%FSLAX44Y44*%
%MOMM*%
G71*
G01*
G75*
%ADD10C,1.2700*%
%ADD11C,1.0160*%
%ADD12C,0.7620*%
%ADD13C,1.2540*%
%ADD14C,1.4000*%
%ADD15R,1.5000X1.5000*%
%ADD16C,1.5000*%
%ADD17C,1.2700*%
%ADD18C,4.6748*%
%ADD19C,2.0000*%
%ADD20C,1.8500*%
%ADD21R,1.8500X1.8500*%
%ADD22O,2.0000X1.0000*%
%ADD23O,2.0000X1.0000*%
%ADD24C,1.7000*%
%ADD25R,1.5748X1.5748*%
%ADD26C,1.5748*%
%ADD27O,1.0000X2.0000*%
%ADD28O,1.0000X2.0000*%
%ADD29C,0.2540*%
%ADD30C,0.5080*%
D29*
X1442720Y1236980D02*
X1442504Y1239515D01*
X1441863Y1241977D01*
X1440815Y1244295D01*
X1439391Y1246403D01*
X1437630Y1248240D01*
X1435585Y1249753D01*
X1433313Y1250898D01*
X1430880Y1251643D01*
X1428357Y1251966D01*
X1425815Y1251859D01*
X1423328Y1251322D01*
X1420967Y1250374D01*
X1418801Y1249040D01*
X1416891Y1247359D01*
X1415292Y1245380D01*
X1414052Y1243158D01*
X1413204Y1240760D01*
X1412774Y1238252D01*
Y1235708D01*
X1413204Y1233200D01*
X1414052Y1230801D01*
X1415292Y1228580D01*
X1416891Y1226601D01*
X1418801Y1224920D01*
X1420967Y1223586D01*
X1423328Y1222637D01*
X1425815Y1222102D01*
X1428357Y1221993D01*
X1430880Y1222317D01*
X1433313Y1223062D01*
X1435585Y1224207D01*
X1437630Y1225720D01*
X1439391Y1227557D01*
X1440815Y1229665D01*
X1441863Y1231983D01*
X1442504Y1234445D01*
X1442720Y1236980D01*
X523240Y1226820D02*
X523024Y1229355D01*
X522383Y1231817D01*
X521335Y1234135D01*
X519911Y1236243D01*
X518150Y1238080D01*
X516105Y1239593D01*
X513833Y1240738D01*
X511400Y1241483D01*
X508877Y1241806D01*
X506335Y1241699D01*
X503848Y1241162D01*
X501487Y1240214D01*
X499320Y1238880D01*
X497411Y1237199D01*
X495812Y1235220D01*
X494572Y1232999D01*
X493724Y1230600D01*
X493294Y1228092D01*
Y1225548D01*
X493724Y1223040D01*
X494572Y1220641D01*
X495812Y1218420D01*
X497411Y1216441D01*
X499320Y1214760D01*
X501487Y1213426D01*
X503848Y1212477D01*
X506335Y1211942D01*
X508877Y1211833D01*
X511400Y1212157D01*
X513833Y1212902D01*
X516105Y1214047D01*
X518150Y1215560D01*
X519911Y1217397D01*
X521335Y1219505D01*
X522383Y1221823D01*
X523024Y1224285D01*
X523240Y1226820D01*
X554990Y668020D02*
X554774Y670555D01*
X554133Y673017D01*
X553085Y675335D01*
X551660Y677443D01*
X549900Y679280D01*
X547855Y680793D01*
X545583Y681938D01*
X543150Y682683D01*
X540627Y683007D01*
X538085Y682898D01*
X535598Y682363D01*
X533237Y681414D01*
X531071Y680080D01*
X529161Y678399D01*
X527562Y676420D01*
X526322Y674199D01*
X525474Y671800D01*
X525044Y669292D01*
Y666748D01*
X525474Y664240D01*
X526322Y661842D01*
X527562Y659620D01*
X529161Y657641D01*
X531071Y655960D01*
X533237Y654626D01*
X535598Y653678D01*
X538085Y653141D01*
X540627Y653034D01*
X543150Y653357D01*
X545583Y654102D01*
X547855Y655247D01*
X549900Y656760D01*
X551661Y658597D01*
X553085Y660705D01*
X554133Y663023D01*
X554774Y665485D01*
X554990Y668020D01*
X1450340Y660400D02*
X1450124Y662935D01*
X1449483Y665397D01*
X1448435Y667715D01*
X1447010Y669823D01*
X1445250Y671660D01*
X1443205Y673173D01*
X1440933Y674318D01*
X1438500Y675063D01*
X1435977Y675387D01*
X1433435Y675278D01*
X1430948Y674743D01*
X1428587Y673794D01*
X1426420Y672460D01*
X1424511Y670779D01*
X1422912Y668800D01*
X1421672Y666579D01*
X1420824Y664180D01*
X1420394Y661672D01*
Y659128D01*
X1420824Y656620D01*
X1421672Y654221D01*
X1422912Y652000D01*
X1424511Y650021D01*
X1426420Y648340D01*
X1428587Y647006D01*
X1430948Y646058D01*
X1433435Y645521D01*
X1435977Y645414D01*
X1438500Y645737D01*
X1440933Y646482D01*
X1443205Y647627D01*
X1445250Y649140D01*
X1447011Y650977D01*
X1448435Y653085D01*
X1449483Y655403D01*
X1450124Y657865D01*
X1450340Y660400D01*
X610497Y1338580D02*
X610281Y1341115D01*
X609640Y1343577D01*
X608592Y1345895D01*
X607167Y1348003D01*
X605407Y1349840D01*
X603361Y1351353D01*
X601090Y1352498D01*
X598657Y1353243D01*
X596133Y1353566D01*
X593591Y1353459D01*
X591104Y1352923D01*
X588744Y1351974D01*
X586577Y1350640D01*
X584667Y1348959D01*
X583069Y1346980D01*
X581828Y1344758D01*
X580981Y1342360D01*
X580551Y1339852D01*
Y1337308D01*
X580981Y1334800D01*
X581828Y1332401D01*
X583069Y1330180D01*
X584667Y1328201D01*
X586577Y1326520D01*
X588744Y1325186D01*
X591104Y1324238D01*
X593591Y1323701D01*
X596133Y1323593D01*
X598657Y1323917D01*
X601090Y1324662D01*
X603361Y1325807D01*
X605407Y1327320D01*
X607167Y1329157D01*
X608592Y1331265D01*
X609640Y1333583D01*
X610281Y1336045D01*
X610497Y1338580D01*
X1404620Y1352550D02*
X1404404Y1355085D01*
X1403763Y1357547D01*
X1402715Y1359865D01*
X1401290Y1361973D01*
X1399530Y1363810D01*
X1397485Y1365323D01*
X1395213Y1366468D01*
X1392780Y1367213D01*
X1390257Y1367536D01*
X1387715Y1367428D01*
X1385228Y1366893D01*
X1382867Y1365944D01*
X1380701Y1364610D01*
X1378791Y1362929D01*
X1377192Y1360950D01*
X1375952Y1358728D01*
X1375104Y1356330D01*
X1374674Y1353822D01*
Y1351278D01*
X1375104Y1348770D01*
X1375952Y1346371D01*
X1377192Y1344150D01*
X1378791Y1342171D01*
X1380701Y1340490D01*
X1382867Y1339156D01*
X1385228Y1338208D01*
X1387715Y1337672D01*
X1390257Y1337563D01*
X1392780Y1337887D01*
X1395213Y1338632D01*
X1397485Y1339777D01*
X1399530Y1341290D01*
X1401291Y1343127D01*
X1402715Y1345235D01*
X1403763Y1347553D01*
X1404404Y1350015D01*
X1404620Y1352550D01*
X1395357Y2065020D02*
X1395141Y2067555D01*
X1394500Y2070017D01*
X1393452Y2072335D01*
X1392027Y2074443D01*
X1390267Y2076280D01*
X1388221Y2077793D01*
X1385950Y2078938D01*
X1383517Y2079683D01*
X1380993Y2080007D01*
X1378451Y2079899D01*
X1375964Y2079362D01*
X1373604Y2078414D01*
X1371437Y2077080D01*
X1369527Y2075399D01*
X1367929Y2073420D01*
X1366688Y2071198D01*
X1365841Y2068800D01*
X1365411Y2066292D01*
Y2063748D01*
X1365841Y2061240D01*
X1366688Y2058842D01*
X1367929Y2056620D01*
X1369527Y2054641D01*
X1371437Y2052960D01*
X1373604Y2051626D01*
X1375964Y2050677D01*
X1378451Y2050141D01*
X1380993Y2050034D01*
X1383517Y2050357D01*
X1385950Y2051102D01*
X1388221Y2052247D01*
X1390267Y2053760D01*
X1392027Y2055597D01*
X1393452Y2057705D01*
X1394500Y2060023D01*
X1395141Y2062485D01*
X1395357Y2065020D01*
X759460Y2078990D02*
X759244Y2081525D01*
X758603Y2083987D01*
X757555Y2086305D01*
X756131Y2088413D01*
X754370Y2090250D01*
X752325Y2091763D01*
X750053Y2092908D01*
X747620Y2093653D01*
X745097Y2093976D01*
X742555Y2093869D01*
X740068Y2093333D01*
X737707Y2092384D01*
X735540Y2091050D01*
X733631Y2089369D01*
X732032Y2087390D01*
X730792Y2085168D01*
X729944Y2082770D01*
X729514Y2080262D01*
Y2077718D01*
X729944Y2075210D01*
X730792Y2072811D01*
X732032Y2070590D01*
X733631Y2068611D01*
X735540Y2066930D01*
X737707Y2065596D01*
X740068Y2064648D01*
X742555Y2064111D01*
X745097Y2064003D01*
X747620Y2064327D01*
X750053Y2065072D01*
X752325Y2066217D01*
X754370Y2067730D01*
X756131Y2069567D01*
X757555Y2071675D01*
X758603Y2073993D01*
X759244Y2076455D01*
X759460Y2078990D01*
D30*
X476250Y1264920D02*
X487680Y1276350D01*
X474980Y1264920D02*
X476250D01*
X1466850Y1271270D02*
X1482090Y1256030D01*
X1466850Y1271270D02*
Y1276350D01*
X1477010Y1259840D02*
X1478280Y1261110D01*
X1477010Y604520D02*
Y1259840D01*
X483870Y2122170D02*
X1466850D01*
X1470660Y2118360D01*
Y1277620D02*
Y2118360D01*
X1469390Y1276350D02*
X1470660Y1277620D01*
X487680Y1276350D02*
X1469390D01*
X487680D02*
Y2120900D01*
X473710Y1263650D02*
X474980Y1264920D01*
X473710Y603250D02*
Y1263650D01*
Y603250D02*
X474980Y601980D01*
X1474470D01*
X1477010Y604520D01*
M02*
